<?xml version="1.0" standalone="no"?> 
<!DOCTYPE svg PUBLIC "-//W3C//DTD SVG 1.1//EN" "http://www.w3.org/Graphics/SVG/1.1/DTD/svg11.dtd" >
<svg xmlns="http://www.w3.org/2000/svg">
<defs>
  <font id="Lunacon" horiz-adv-x="200.4">
    <font-face font-family="Lunacon"
      units-per-em="1001" ascent="1001"
      descent="0" />
    <missing-glyph horiz-adv-x="0" />
    <glyph glyph-name="basket-solid"
      unicode="&#xE001;"
      horiz-adv-x="1092.5947712418301" d=" M981.3725490196078 641.1633986928105H111.2222222222222A111.22222222222221 111.22222222222221 0 0 1 72.8832679738562 425.7194117647058L194.5080392156863 0H891.5442483660129L1012.4493464052287 423.2332679738562A111.22222222222221 111.22222222222221 0 0 1 981.3725490196076 641.1633986928105zM317.3104575163399 137.3921568627451A19.627450980392155 19.627450980392155 0 0 0 278.0555555555556 137.3921568627451V490.6862745098039A19.627450980392155 19.627450980392155 0 0 0 317.3104575163399 490.6862745098039zM441.6176470588236 137.3921568627451A19.627450980392155 19.627450980392155 0 0 0 402.3627450980393 137.3921568627451V490.6862745098039A19.627450980392155 19.627450980392155 0 0 0 441.6176470588236 490.6862745098039zM565.9248366013072 137.3921568627451A19.627450980392155 19.627450980392155 0 0 0 526.6699346405229 137.3921568627451V490.6862745098039A19.627450980392155 19.627450980392155 0 0 0 565.9248366013072 490.6862745098039zM690.2320261437908 137.3921568627451A19.627450980392155 19.627450980392155 0 0 0 650.9771241830065 137.3921568627451V490.6862745098039A19.627450980392155 19.627450980392155 0 0 0 690.2320261437908 490.6862745098039zM814.5392156862745 137.3921568627451A19.627450980392155 19.627450980392155 0 0 0 775.2843137254902 137.3921568627451V490.6862745098039A19.627450980392155 19.627450980392155 0 0 0 814.5392156862745 490.6862745098039z M856.0185620915033 930.2103267973856A98.66065359477122 98.66065359477122 0 0 1 761.8722222222223 1000.6728758169934H330.7225490196079A98.66065359477122 98.66065359477122 0 0 1 236.5762091503268 930.5374509803922L157.3467320261438 660.7908496732025H225.5194117647059L299.3186274509804 912.0876470588234A32.71241830065359 32.71241830065359 0 0 0 330.7225490196078 935.5751633986928H761.8722222222223A32.71241830065359 32.71241830065359 0 0 0 793.2761437908497 912.0876470588234L867.0099346405227 660.7908496732025H935.1826143790848z" />
    <glyph glyph-name="basket"
      unicode="&#xE002;"
      horiz-adv-x="1092.5947712418301" d=" M981.3725490196078 641.1633986928105H111.2222222222222A111.22222222222221 111.22222222222221 0 0 1 72.8832679738562 425.7194117647058L194.5080392156863 0H891.5442483660129L1012.4493464052287 423.2332679738562A111.22222222222221 111.22222222222221 0 0 1 981.3725490196076 641.1633986928105zM984.382091503268 484.1437908496732L977.8396078431372 483.7512418300654V483.7512418300654H912.41477124183A13.084967320261436 13.084967320261436 0 0 1 899.3298039215687 470.6662745098039V431.4113725490196A13.084967320261436 13.084967320261436 0 0 1 912.41477124183 418.3264052287582H942.9027450980392L841.9522222222222 65.0322875816994H243.8383660130719L142.9532679738562 418.3264052287582H166.8333333333334A13.084967320261436 13.084967320261436 0 0 1 179.9183006535948 431.4113725490196V470.6662745098039A13.084967320261436 13.084967320261436 0 0 1 166.8333333333334 483.7512418300654H108.4743790849673L104.2871895424837 484.4054901960784A45.79738562091503 45.79738562091503 0 0 0 67.518431372549 544.5309150326797A46.90960784313725 46.90960784313725 0 0 0 112.3344444444445 575.7385620915031H979.6715032679735A46.975032679738554 46.975032679738554 0 0 0 1026.5156862745098 537.6613071895425A45.79738562091503 45.79738562091503 0 0 0 984.3820915032678 484.3400653594772z M856.0185620915033 930.2103267973856A98.66065359477122 98.66065359477122 0 0 1 761.8722222222223 1000.6728758169934H330.7225490196079A98.66065359477122 98.66065359477122 0 0 1 236.5762091503268 930.5374509803922L157.3467320261438 660.7908496732025H225.5194117647059L299.3186274509804 912.0876470588234A32.71241830065359 32.71241830065359 0 0 0 330.7225490196078 935.5751633986928H761.8722222222223A32.71241830065359 32.71241830065359 0 0 0 793.2761437908497 912.0876470588234L867.0099346405227 660.7908496732025H935.1826143790848z M794.9117647058823 117.7647058823529A19.627450980392155 19.627450980392155 0 0 0 775.2843137254902 137.3921568627451V490.6862745098039A19.627450980392155 19.627450980392155 0 0 0 814.5392156862745 490.6862745098039V137.3921568627451A19.627450980392155 19.627450980392155 0 0 0 794.9117647058823 117.7647058823529z M670.6045751633986 117.7647058823529A19.627450980392155 19.627450980392155 0 0 0 650.9771241830065 137.3921568627451V490.6862745098039A19.627450980392155 19.627450980392155 0 0 0 690.2320261437908 490.6862745098039V137.3921568627451A19.627450980392155 19.627450980392155 0 0 0 670.6045751633986 117.7647058823529z M546.2973856209151 117.7647058823529A19.627450980392155 19.627450980392155 0 0 0 526.6699346405229 137.3921568627451V490.6862745098039A19.627450980392155 19.627450980392155 0 0 0 565.9248366013072 490.6862745098039V137.3921568627451A19.627450980392155 19.627450980392155 0 0 0 546.2973856209151 117.7647058823529z M421.9901960784314 117.7647058823529A19.627450980392155 19.627450980392155 0 0 0 402.3627450980393 137.3921568627451V490.6862745098039A19.627450980392155 19.627450980392155 0 0 0 441.6176470588236 490.6862745098039V137.3921568627451A19.627450980392155 19.627450980392155 0 0 0 421.9901960784314 117.7647058823529z M297.6830065359477 117.7647058823529A19.627450980392155 19.627450980392155 0 0 0 278.0555555555556 137.3921568627451V490.6862745098039A19.627450980392155 19.627450980392155 0 0 0 317.3104575163399 490.6862745098039V137.3921568627451A19.627450980392155 19.627450980392155 0 0 0 297.6830065359477 117.7647058823529z" />
    <glyph glyph-name="bell-mute-solid"
      unicode="&#xE003;"
      horiz-adv-x="911.6275272161743" d=" M673.9377916018663 154.4735614307932L157.3748055987559 671.0365474339037A307.248833592535 307.248833592535 0 0 1 139.4720062208398 567.2993779160188L143.2223950233282 441.9090202177295A258.56454121306376 258.56454121306376 0 0 0 113.0777604976672 313.6881804043547L54.699066874028 204.0069984447902A33.682737169517885 33.682737169517885 0 0 1 55.5482115085537 170.6073094867808A34.17807153965785 34.17807153965785 0 0 1 84.6314152410575 154.4735614307932H315.2449455676517A133.45723172628303 133.45723172628303 0 0 1 313.8297045101089 135.1555209953344A134.94323483670294 134.94323483670294 0 1 1 583.7161741835148 135.1555209953344A133.45723172628303 133.45723172628303 0 0 1 581.9471228615863 154.4735614307932zM448.4191290824262 56.7511664074651A78.47511664074649 78.47511664074649 0 0 0 372.8452566096423 154.4735614307932H524.7006220839813A78.47511664074649 78.47511664074649 0 0 0 448.7729393468118 56.7511664074651zM784.1850699844479 320.6228615863141A254.74339035769827 254.74339035769827 0 0 0 757.3662519440124 433.8421461897356V567.2993779160188A309.5132192846034 309.5132192846034 0 0 1 554.4914463452566 857.4237947122863V898.3950233281494A102.74650077760495 102.74650077760495 0 0 1 451.8864696734059 1001H444.8102643856921A102.74650077760495 102.74650077760495 0 0 1 342.2052877138414 898.3950233281494V857.5653188180405A307.5318818040435 307.5318818040435 0 0 1 258.3522550544323 810.4377916018663L820.9105754276826 247.8794712286159zM497.8110419906688 872.5668740279938A309.1594090202177 309.1594090202177 0 0 1 448.2776049766719 876.5295489891134A313.9712286158631 313.9712286158631 0 0 1 398.744167962675 872.6376360808708V898.3950233281494A46.06609642301709 46.06609642301709 0 0 0 444.739502332815 944.3903576982894H451.8157076205288A46.06609642301709 46.06609642301709 0 0 0 497.8110419906688 898.3950233281494z M909.5754276827374 69.1345256609643L879.5723172628307 39.1314152410575A7.076205287713841 7.076205287713841 0 0 0 869.524105754277 39.1314152410575L697.7138413685849 211.083203732504L224.8110419906688 683.8444790046657L183.2029548989114 725.4525660964231L2.1228615863142 906.5326594090202A7.076205287713841 7.076205287713841 0 0 0 2.1228615863142 916.5808709175737L32.1259720062209 946.5839813374806A7.076205287713841 7.076205287713841 0 0 0 42.1741835147745 946.5839813374806L217.0979782270607 771.6601866251945L774.4199066874028 214.3382581648523L829.8973561430793 158.8608087091758L909.575427682737 79.1827371695179A7.076205287713841 7.076205287713841 0 0 0 909.5754276827374 69.1345256609643z" />
    <glyph glyph-name="bell-mute"
      unicode="&#xE004;"
      horiz-adv-x="911.6275272161743" d=" M346.3802488335925 797.9836702954899A250.7807153965785 250.7807153965785 0 0 0 448.6314152410576 819.6368584758943A253.39891135303264 253.39891135303264 0 0 0 497.0326594090201 814.966562986003A246.81804043545878 246.81804043545878 0 0 0 551.094867807154 797.8421461897356A252.62052877138416 252.62052877138416 0 0 0 701.0396578538102 567.2993779160187V433.4175738724728A309.9377916018662 309.9377916018662 0 0 1 710.5217729393468 358.1975116640747L820.8398133748055 247.8794712286159L784.4681181959564 320.4813374805599A254.74339035769827 254.74339035769827 0 0 0 757.6493001555209 433.7006220839814V567.2993779160188A309.5132192846034 309.5132192846034 0 0 1 554.774494556765 857.4237947122863V898.3950233281494A102.74650077760495 102.74650077760495 0 0 1 452.1695178849144 1001H445.0933125972006A102.74650077760495 102.74650077760495 0 0 1 342.4883359253499 898.3950233281494V857.5653188180405A307.5318818040435 307.5318818040435 0 0 1 258.3522550544323 810.4377916018663L298.8989113530327 770.1034214618974A250.42690513219281 250.42690513219281 0 0 0 346.3802488335925 797.9836702954899zM399.3810264385692 898.3950233281494A46.06609642301709 46.06609642301709 0 0 0 445.3763608087092 944.3903576982894H452.452566096423A46.06609642301709 46.06609642301709 0 0 0 498.4479004665629 898.3950233281494V872.2838258164852A309.1594090202177 309.1594090202177 0 0 1 448.9144634525661 876.246500777605A313.9712286158631 313.9712286158631 0 0 1 399.3810264385692 872.3545878693624z M617.3281493001556 211.083203732504H121.9937791601867L162.4696734059099 287.223172628305A314.961897356143 314.961897356143 0 0 1 199.2659409020218 443.6073094867809L195.798600311042 567.7947122861588A244.1290824261275 244.1290824261275 0 0 0 202.8748055987559 625.678071539658L157.3748055987559 671.0365474339037A305.55054432348356 305.55054432348356 0 0 1 139.4012441679627 567.2993779160188L143.2223950233282 441.9090202177295A258.56454121306376 258.56454121306376 0 0 0 113.0777604976672 313.6881804043547L54.699066874028 204.0069984447902A33.682737169517885 33.682737169517885 0 0 1 55.5482115085537 170.6073094867808A34.17807153965785 34.17807153965785 0 0 1 84.6314152410575 154.4735614307932H315.2449455676517A133.45723172628303 133.45723172628303 0 0 1 313.8297045101089 135.1555209953344A134.94323483670294 134.94323483670294 0 1 1 583.7161741835148 135.1555209953344A133.45723172628303 133.45723172628303 0 0 1 581.9471228615863 154.4735614307932H673.9377916018663zM448.4191290824262 56.7511664074651A78.47511664074649 78.47511664074649 0 0 0 372.8452566096423 154.4735614307932H524.7006220839813A78.47511664074649 78.47511664074649 0 0 0 448.7729393468118 56.7511664074651z M909.5754276827374 79.1827371695181L829.6143079315708 158.8608087091758L774.1368584758942 214.3382581648524L257.2200622083982 731.538102643857L217.0979782270607 771.6601866251945L42.1741835147745 946.5839813374806A7.076205287713841 7.076205287713841 0 0 1 32.1259720062208 946.5839813374806L2.1228615863142 916.5808709175737A7.076205287713841 7.076205287713841 0 0 1 2.1228615863142 906.5326594090202L183.2029548989114 725.452566096423L224.8110419906688 683.8444790046656L697.7138413685849 211.083203732504L754.3234836702957 154.4735614307932L869.524105754277 39.2729393468119A7.076205287713841 7.076205287713841 0 0 1 879.5723172628307 39.2729393468119L909.5754276827374 69.2760497667186A7.076205287713841 7.076205287713841 0 0 1 909.5754276827374 79.1827371695181z" />
    <glyph glyph-name="bell-solid"
      unicode="&#xE005;"
      horiz-adv-x="796.1438569206842" d=" M792.5349922239501 203.4409020217729L733.8732503888023 320.4813374805598A254.74339035769827 254.74339035769827 0 0 0 707.0544323483668 433.7006220839812V567.2993779160188A309.5132192846034 309.5132192846034 0 0 1 504.179626749611 857.4237947122863V898.3950233281494A102.74650077760495 102.74650077760495 0 0 1 401.5746500777603 1001H394.4984447900465A102.74650077760495 102.74650077760495 0 0 1 291.8934681181958 898.3950233281494V857.5653188180405A309.4424572317262 309.4424572317262 0 0 1 88.7356143079314 567.440902021773L92.556765163297 441.9090202177295A258.56454121306376 258.56454121306376 0 0 0 62.4121306376361 313.6881804043547L4.0334370139969 204.0069984447902A33.682737169517885 33.682737169517885 0 0 1 4.8825816485226 170.6073094867808A34.17807153965785 34.17807153965785 0 0 1 33.9657853810264 154.4735614307932H264.5793157076206A133.45723172628303 133.45723172628303 0 0 1 263.1640746500778 135.1555209953344A134.94323483670294 134.94323483670294 0 1 1 533.0505443234837 135.1555209953344A133.45723172628303 133.45723172628303 0 0 1 531.2814930015552 154.4735614307932H761.8950233281493A33.8950233281493 33.8950233281493 0 0 1 792.1811819595645 203.5824261275273zM348.7153965785381 898.3950233281494A46.06609642301709 46.06609642301709 0 0 0 394.7107309486781 944.3903576982894H401.7869362363919A46.06609642301709 46.06609642301709 0 0 0 447.7822706065319 898.3950233281494V872.2838258164852A309.1594090202177 309.1594090202177 0 0 1 398.248833592535 876.246500777605A313.9712286158631 313.9712286158631 0 0 1 348.7153965785381 872.3545878693624zM398.248833592535 56.3265940902022A78.47511664074649 78.47511664074649 0 0 0 322.1796267496112 154.4735614307932H474.0349922239503A78.47511664074649 78.47511664074649 0 0 0 398.1073094867807 56.7511664074651z" />
    <glyph glyph-name="bell"
      unicode="&#xE006;"
      horiz-adv-x="796.1438569206842" d=" M792.5349922239501 203.4409020217729L733.8732503888023 320.4813374805598A254.74339035769827 254.74339035769827 0 0 0 707.0544323483668 433.7006220839812V567.2993779160188A309.5132192846034 309.5132192846034 0 0 1 504.179626749611 857.4237947122863V898.3950233281494A102.74650077760495 102.74650077760495 0 0 1 401.5746500777603 1001H394.4984447900465A102.74650077760495 102.74650077760495 0 0 1 291.8934681181958 898.3950233281494V857.5653188180405A309.4424572317262 309.4424572317262 0 0 1 88.7356143079314 567.440902021773L92.556765163297 441.9090202177295A258.56454121306376 258.56454121306376 0 0 0 62.4121306376361 313.6881804043547L4.0334370139969 204.0069984447902A33.682737169517885 33.682737169517885 0 0 1 4.8825816485226 170.6073094867808A34.17807153965785 34.17807153965785 0 0 1 33.9657853810264 154.4735614307932H264.5793157076206A133.45723172628303 133.45723172628303 0 0 1 263.1640746500778 135.1555209953344A134.94323483670294 134.94323483670294 0 1 1 533.0505443234837 135.1555209953344A133.45723172628303 133.45723172628303 0 0 1 531.2814930015552 154.4735614307932H761.8950233281493A33.8950233281493 33.8950233281493 0 0 1 792.1811819595645 203.5824261275273zM348.7153965785381 898.3950233281494A46.06609642301709 46.06609642301709 0 0 0 394.7107309486781 944.3903576982894H401.7869362363919A46.06609642301709 46.06609642301709 0 0 0 447.7822706065319 898.3950233281494V872.2838258164852A309.1594090202177 309.1594090202177 0 0 1 398.248833592535 876.246500777605A313.9712286158631 313.9712286158631 0 0 1 348.7153965785381 872.3545878693624zM476.0870917573872 135.0139968895802A78.33359253499222 78.33359253499222 0 1 0 322.1796267496112 154.4735614307932H474.0349922239503A78.97045101088646 78.97045101088646 0 0 0 476.4409020217729 135.0139968895802zM509.5575427682737 211.083203732504H71.7527216174184L112.2286158631415 287.223172628305A314.961897356143 314.961897356143 0 0 1 149.0248833592535 443.6073094867809L145.5575427682737 567.7947122861588A252.69129082426127 252.69129082426127 0 0 0 295.7146189735614 797.9836702954899A250.7807153965785 250.7807153965785 0 0 0 397.9657853810264 819.6368584758943A253.39891135303264 253.39891135303264 0 0 0 446.3670295489891 814.966562986003A246.81804043545878 246.81804043545878 0 0 0 500.4292379471228 797.8421461897356A252.62052877138416 252.62052877138416 0 0 0 650.3740279937791 567.2993779160187V433.4175738724728A310.57465007776045 310.57465007776045 0 0 1 683.2076205287714 295.1485225505444L725.6648522550544 210.9416796267497z" />
    <glyph glyph-name="cart-solid"
      unicode="&#xE007;"
      horiz-adv-x="959.6669248644462" d=" M363.2300542215337 107.29899302866A107.35863671572423 107.35863671572423 0 1 0 255.8714175058095 214.6576297443842A107.35863671572423 107.35863671572423 0 0 0 363.2300542215337 107.29899302866z M959.6669248644462 113.2633617350891A107.35863671572423 107.35863671572423 0 1 0 852.3082881487219 220.6219984508133A107.35863671572423 107.35863671572423 0 0 0 959.6669248644462 113.2633617350891z M950.422153369481 649.9372579395817V626.7358636715724C950.422153369481 590.4128582494191 935.0340821068938 556.8931061192873 904.7350890782338 527.0712625871417C809.4841208365608 433.7288923315261 561.0085205267235 379.2742060418281 234.0418280402789 379.2742060418281L213.2858249419055 379.2742060418281C217.9976762199845 338.3586367157243 223.9024012393494 303.884585592564 231.8946553059644 292.0154918667701C322.9109217660728 292.0154918667701 770.3578621223857 297.323780015492 890.5398915569326 298.6955848179707A29.821843532145625 29.821843532145625 0 0 0 920.3617350890783 269.2316034082109H920.3617350890783A29.821843532145625 29.821843532145625 0 0 0 890.9573973663826 239.1115414407438C768.3299767621997 237.6800929512008 305.1967467079783 232.4314484895431 226.6460108443067 232.4314484895431C163.3044151820294 232.4314484895431 155.9682416731216 327.3245546088305 143.8009295120062 484.5453137103023C130.6196746707978 654.8876839659181 112.845855925639 884.1580170410537 13.8969790859798 945.650658404338A29.821843532145625 29.821843532145625 0 0 0 -0.2385747482572 970.9992254066618A30.477924089852827 30.477924089852827 0 0 0 1.3718048024787 980.7211463981412A29.821843532145625 29.821843532145625 0 0 0 46.0449264136328 996.4074360960497C99.724244771495 963.2455460883036 133.303640588691 900.6196746707978 155.7296669248644 824.6932610379552H815.4484895429899C864.2370255615801 824.6932610379552 898.9496514329976 819.9814097598761 922.8071262587142 796.601084430674C950.7800154918668 768.2106893880713 950.660728117738 726.2215336948102 950.422153369481 649.9372579395817z" />
    <glyph glyph-name="cart"
      unicode="&#xE008;"
      horiz-adv-x="959.7265685515104" d=" M255.9310611928737 214.6576297443842A107.35863671572423 107.35863671572423 0 1 1 363.289697908598 107.29899302866A107.35863671572423 107.35863671572423 0 0 1 255.9310611928737 214.6576297443842zM255.9310611928737 59.584043377227A47.714949651432995 47.714949651432995 0 1 0 303.6460108443067 107.29899302866A47.714949651432995 47.714949651432995 0 0 0 255.9310611928737 59.584043377227z M852.3679318357862 220.6219984508133A107.35863671572423 107.35863671572423 0 1 1 959.7265685515104 113.2633617350891A107.35863671572423 107.35863671572423 0 0 1 852.3679318357862 220.6219984508133zM852.3679318357862 65.5484120836561A47.714949651432995 47.714949651432995 0 1 0 900.0828814872192 113.2633617350891A47.714949651432995 47.714949651432995 0 0 0 852.3679318357862 65.5484120836561z M226.9442292796282 232.5507358636716C305.4949651432998 232.5507358636716 768.6281951975213 237.7993803253292 891.1959721146399 239.2308288148722A29.821843532145625 29.821843532145625 0 0 1 920.6003098373355 269.0526723470179V269.0526723470179A29.821843532145625 29.821843532145625 0 0 1 890.7784663051899 298.4570100697136C770.596436870643 297.0852052672348 323.2091402013944 292.0154918667701 232.1332300542217 291.7769171185129C224.2006196746709 303.7056545313711 218.2362509682418 338.1200619674671 213.584043377227 379.0356312935709L234.3400464756004 379.0356312935709C561.306738962045 379.0356312935709 810.0805577072038 433.4903175832688 904.9736638264912 526.8326878388846C935.2726568551512 556.6545313710302 950.6607281177382 590.1742835011619 950.6607281177382 626.437645236251Q950.6607281177382 638.3663826491093 950.6607281177382 649.6986831913246C950.6607281177382 725.982958946553 951.018590240124 767.9721146398141 922.74748257165 796.3028659953525C899.4268009295121 819.7428350116189 864.4756003098373 824.3950426026336 815.3888458559256 824.3950426026336H155.5507358636716C133.1247095274981 900.6196746707978 99.3067389620449 963.2455460883036 46.1045701006971 996.4074360960497A29.821843532145625 29.821843532145625 0 0 1 1.848954298993 980.8404337722696H1.848954298993A29.821843532145625 29.821843532145625 0 0 1 14.3741285824942 945.7699457784664C113.1440743609605 884.277304415182 130.9178931061193 655.0069713400466 144.0991479473277 484.724244771495C156.2664601084431 327.4438419829591 163.6026336173509 232.5507358636716 226.9442292796282 232.5507358636716zM815.5081332300541 765.0495739736639C838.828814872192 765.0495739736639 870.8574748257164 763.9759876065066 880.3408210689387 754.4926413632843C891.1363284275754 743.6971340046475 891.0170410534469 704.4515879163439 890.838109992254 650.1758326878389Q890.838109992254 639.0224632068164 890.838109992254 626.7358636715724C890.838109992254 606.7552285050349 881.7126258714173 588.0867544539117 862.98450813323 569.6568551510456C777.6940356312934 485.7978311386522 527.6080557707204 436.4128582494191 207.5600309837335 439.0968241673122C206.0689388071263 456.3338497288923 204.7567776917118 473.451587916344 203.563903950426 489.3168086754455C196.6452362509682 578.7823392718824 189.0108443067389 677.2540666150272 170.4616576297443 765.1092176607282z" />
    <glyph glyph-name="checkmark-small"
      unicode="&#xE009;"
      horiz-adv-x="1001" d=" M793.2075848303393 680.320359281437C797.2035928143713 676.3243512974052 797.2035928143713 670.3303393213573 793.2075848303393 666.3343313373254L455.5449101796408 328.6716566866268L377.6227544910181 250.7495009980041C373.6267465069862 246.7534930139721 367.6327345309382 246.7534930139721 363.6367265469063 250.7495009980041L285.7145708582836 328.6716566866268L207.7924151696608 406.5938123752495C203.7964071856289 410.5898203592815 203.7964071856289 416.5838323353294 207.7924151696608 420.5798403193613L278.7215568862277 491.5089820359282C282.7175648702596 495.5049900199601 288.7115768463075 495.5049900199601 292.7075848303395 491.5089820359282L363.6367265469063 420.5798403193613C367.6327345309382 416.5838323353294 373.6267465069862 416.5838323353294 377.6227544910181 420.5798403193613L708.2924151696607 751.249500998004C712.2884231536927 755.245508982036 718.2824351297405 755.245508982036 722.2784431137725 751.249500998004L793.2075848303393 680.320359281437z" />
    <glyph glyph-name="checkmark"
      unicode="&#xE00A;"
      horiz-adv-x="1168.6892265193371" d=" M1162.8625690607735 855.5310773480662A19.751381215469614 19.751381215469614 0 0 0 1162.8625690607735 827.5828729281768L494.8708563535913 159.5911602209946L341.1063535911602 5.8266574585634A19.751381215469614 19.751381215469614 0 0 0 313.1581491712708 5.8266574585634L159.4924033149171 159.5911602209946L5.7279005524862 313.2569060773481A19.751381215469614 19.751381215469614 0 0 0 5.7279005524862 341.2051104972376L145.4689226519338 480.9461325966851A19.751381215469614 19.751381215469614 0 0 0 173.4171270718233 480.9461325966851L313.1581491712708 341.2051104972376A19.751381215469614 19.751381215469614 0 0 1 341.1063535911603 341.2051104972376L995.1733425414366 995.2720994475138A19.751381215469614 19.751381215469614 0 0 0 1023.121546961326 995.2720994475138z" />
    <glyph glyph-name="chevron-down"
      unicode="&#xE00B;"
      horiz-adv-x="1001" d=" M489.0114770459082 311.688622754491L184.3158682634731 616.8837325349301C179.8203592814371 621.3792415169661 179.8203592814371 628.871756487026 184.3158682634731 633.3672654690619L234.2659680638723 683.3173652694611C238.7614770459082 687.812874251497 246.2539920159681 687.812874251497 250.749500998004 683.3173652694611L489.0114770459082 445.0553892215569C493.5069860279442 440.5598802395209 500.999500998004 440.5598802395209 505.4950099800399 445.0553892215569L749.750998003992 689.311377245509C754.246506986028 693.8068862275449 761.7390219560878 693.8068862275449 766.2345309381237 689.311377245509L816.184630738523 639.3612774451097C820.6801397205589 634.8657684630739 820.6801397205589 627.3732534930139 816.184630738523 622.8777445109781L505.9945109780439 311.688622754491C500.999500998004 307.1931137724552 493.5069860279441 307.1931137724552 489.0114770459082 311.688622754491z" />
    <glyph glyph-name="chevron-left"
      unicode="&#xE00C;"
      horiz-adv-x="1001" d=" M311.688622754491 511.9885229540918L616.8837325349301 817.1836327345309C621.3792415169661 821.6791417165668 628.8717564870259 821.6791417165668 633.3672654690619 817.1836327345309L683.3173652694611 767.2335329341317C687.8128742514971 762.7380239520958 687.8128742514971 755.245508982036 683.3173652694611 750.75L445.0553892215568 511.9885229540918C440.5598802395209 507.4930139720558 440.5598802395209 500.000499001996 445.0553892215568 495.5049900199601L689.311377245509 251.249001996008C693.8068862275449 246.7534930139721 693.8068862275449 239.2609780439123 689.311377245509 234.7654690618763L639.3612774451097 184.815369261477C634.8657684630738 180.3198602794411 627.3732534930139 180.3198602794411 622.877744510978 184.815369261477L312.188123752495 495.5049900199601C307.1931137724551 500.000499001996 307.1931137724551 507.4930139720559 311.688622754491 511.9885229540918z" />
    <glyph glyph-name="chevron-right"
      unicode="&#xE00D;"
      horiz-adv-x="1001" d=" M689.311377245509 489.5109780439122L384.1162674650699 184.3158682634731C379.6207584830339 179.8203592814372 372.1282435129741 179.8203592814372 367.6327345309382 184.3158682634731L317.682634730539 234.2659680638723C313.1871257485031 238.7614770459083 313.1871257485031 246.2539920159682 317.682634730539 250.7495009980041L555.9446107784431 489.0114770459083C560.4401197604791 493.5069860279442 560.4401197604791 500.9995009980041 555.9446107784431 505.49500998004L311.688622754491 750.250499001996C307.1931137724551 754.746007984032 307.1931137724551 762.2385229540919 311.688622754491 766.7340319361277L361.6387225548903 816.684131736527C366.1342315369262 821.1796407185628 373.6267465069861 821.1796407185628 378.122255489022 816.684131736527L689.311377245509 505.994510978044C693.8068862275449 501.499001996008 693.8068862275449 494.0064870259481 689.311377245509 489.5109780439122z" />
    <glyph glyph-name="chevron-up"
      unicode="&#xE00E;"
      horiz-adv-x="1001" d=" M511.4890219560878 689.311377245509L816.6841317365269 384.1162674650699C821.1796407185628 379.6207584830339 821.1796407185628 372.1282435129741 816.6841317365269 367.6327345309382L766.7340319361277 317.6826347305389C762.2385229540918 313.1871257485029 754.7460079840318 313.1871257485029 750.2504990019959 317.6826347305389L511.9885229540917 555.9446107784431C507.4930139720558 560.4401197604791 500.0004990019959 560.4401197604791 495.50499001996 555.9446107784431L250.749500998004 311.688622754491C246.2539920159681 307.1931137724552 238.7614770459082 307.1931137724552 234.2659680638723 311.688622754491L184.3158682634731 361.6387225548903C179.8203592814372 366.1342315369262 179.8203592814372 373.6267465069862 184.3158682634731 378.122255489022L495.0054890219561 688.811876247505C499.500998003992 693.806886227545 506.9935129740519 693.806886227545 511.4890219560878 689.311377245509z" />
    <glyph glyph-name="close-small"
      unicode="&#xE00F;"
      horiz-adv-x="1001" d=" M789.2115768463074 296.7035928143713C806.694111776447 279.2210578842316 806.694111776447 250.7495009980041 789.2115768463074 233.2669660678644L768.2325349301398 212.2879241516968C759.741017964072 203.7964071856289 748.2524950099801 199.300898203593 736.2644710578842 199.300898203593C724.2764471057884 199.300898203593 712.7879241516966 203.7964071856289 704.2964071856287 212.2879241516968L500.5 416.0843313373255L296.7035928143713 211.7884231536926C288.2120758483034 203.2969061876248 276.7235528942116 198.8013972055889 264.7355289421158 198.8013972055889C252.74750499002 198.8013972055889 241.2589820359281 203.2969061876248 232.7674650698603 211.7884231536926L211.7884231536926 232.7674650698603C194.3058882235529 250.25 194.3058882235529 278.7215568862275 211.7884231536926 296.2040918163672L415.5848303393213 500.0004990019959L211.7884231536926 704.2964071856288C194.3058882235529 721.7789421157685 194.3058882235529 750.250499001996 211.7884231536926 767.7330339321358L232.7674650698603 788.7120758483034C241.2589820359282 797.2035928143713 252.74750499002 801.6991017964071 264.7355289421158 801.6991017964071C276.7235528942116 801.6991017964071 288.2120758483034 797.2035928143713 296.7035928143713 788.7120758483034L500.4999999999999 584.9156686626748L704.2964071856287 789.2115768463074C712.7879241516965 797.7030938123753 724.2764471057884 802.1986027944113 736.2644710578842 802.1986027944113C748.2524950099801 802.1986027944113 759.7410179640718 797.7030938123753 768.2325349301398 789.2115768463074L789.7110778443115 767.7330339321358C807.1936127744511 750.2504990019961 807.1936127744511 721.7789421157686 789.7110778443115 704.2964071856288L585.9146706586828 500.5000000000001L789.2115768463074 296.7035928143713z" />
    <glyph glyph-name="close"
      unicode="&#xE010;"
      horiz-adv-x="1000.9171563353472" d=" M641.0442770835057 500.4585781676735L979.4606471902672 838.5435736158239A74.55929818753621 74.55929818753621 0 0 1 979.4606471902672 944.0035587188612L944.2520897128196 979.2121161963088A74.55929818753621 74.55929818753621 0 0 1 838.874948274435 979.2121161963088L500.4585781676736 641.0442770835058L162.3735827195233 979.129272531656A74.55929818753621 74.55929818753621 0 0 1 56.9135976164859 979.129272531656L21.7878838036911 944.0035587188612A74.55929818753621 74.55929818753621 0 0 1 21.7878838036911 838.5435736158238L359.8728792518415 500.4585781676736L21.7878838036911 162.2907390548704A74.55929818753621 74.55929818753621 0 0 1 21.7878838036911 56.830753951833L56.913597616486 21.4565091450797A74.55929818753621 74.55929818753621 0 0 1 162.3735827195233 21.4565091450797L500.4585781676736 359.5415045932301L838.6264172804766 21.4565091450797A74.55929818753621 74.55929818753621 0 0 1 944.086402383514 21.4565091450797L979.2121161963088 56.5822229578746A74.55929818753621 74.55929818753621 0 0 1 979.4606471902672 162.2907390548704z" />
    <glyph glyph-name="cloud-check-solid"
      unicode="&#xE011;"
      horiz-adv-x="1290.6226666666666" d=" M635.9686666666666 475.8086666666667L314.9813333333333 154.8213333333333C222.8893333333333 163.4966666666667 141.4746666666666 207.5406666666667 84.7513333333333 273.6066666666666L106.7733333333333 295.6286666666666C110.7773333333333 299.6326666666665 117.4506666666667 299.6326666666665 121.4546666666666 295.6286666666666L194.194 222.8893333333332C198.198 218.8853333333333 204.8713333333333 218.8853333333333 208.8753333333333 222.8893333333332L549.2153333333333 563.2293333333332C553.2193333333332 567.2333333333331 559.8926666666666 567.2333333333331 563.8966666666666 563.2293333333332L636.636 490.4899999999998C639.9726666666667 486.4860000000001 639.9726666666667 479.8126666666667 635.9686666666666 475.8086666666667z M1290.6226666666666 326.9933333333334C1290.6226666666666 235.5686666666667 1220.5526666666667 161.4946666666667 1131.1299999999999 154.154V153.4866666666667H407.7406666666667L682.682 428.4280000000001C697.3633333333333 443.1093333333335 705.3713333333334 462.462 705.3713333333334 483.1493333333334C705.3713333333334 503.8366666666667 697.3633333333333 523.1893333333335 682.682 537.8706666666667L609.9426666666667 610.61C595.2613333333334 625.2913333333333 575.9086666666667 633.2993333333334 555.2213333333333 633.2993333333334S515.1813333333333 625.2913333333333 500.4999999999999 610.61L200.2 310.3100000000001L167.5006666666667 343.0093333333334C152.8193333333333 357.6906666666668 133.4666666666667 365.6986666666668 112.7793333333334 365.6986666666668C92.092 365.6986666666668 72.7393333333334 357.6906666666668 58.058 343.0093333333334L44.044 328.9953333333334C16.6833333333333 379.7126666666668 0 437.7706666666667 0 500.5000000000001C0 692.0246666666667 155.4886666666667 847.5133333333333 347.0133333333333 847.5133333333333C462.4619999999999 847.5133333333333 564.564 790.79 627.9606666666666 704.0366666666666C671.3373333333333 737.4033333333334 725.3913333333333 757.4233333333334 784.1166666666666 757.4233333333334C926.2586666666668 757.4233333333334 1041.04 642.642 1041.04 500.5000000000001C1041.04 494.494 1041.04 488.4880000000001 1040.3726666666666 482.482C1063.7293333333332 493.8266666666667 1089.7553333333333 500.5000000000001 1117.116 500.5000000000001C1213.212 500.5000000000001 1290.6226666666666 423.0893333333335 1290.6226666666666 326.9933333333334z M635.9686666666666 475.8086666666667L208.8753333333333 48.7153333333334C204.8713333333333 44.7113333333335 198.198 44.7113333333335 194.194 48.7153333333334L114.114 128.7953333333335L34.034 208.8753333333335C30.03 212.8793333333334 30.03 219.5526666666667 34.034 223.5566666666669L84.7513333333333 274.2740000000001L106.7733333333333 296.2960000000001C110.7773333333333 300.3000000000001 117.4506666666667 300.3000000000001 121.4546666666666 296.2960000000001L194.194 223.5566666666667C198.198 219.5526666666667 204.8713333333333 219.5526666666667 208.8753333333333 223.5566666666667L549.2153333333333 563.8966666666668C553.2193333333332 567.9006666666667 559.8926666666666 567.9006666666667 563.8966666666666 563.8966666666668L636.636 491.1573333333333C639.9726666666667 486.4860000000001 639.9726666666667 479.8126666666667 635.9686666666666 475.8086666666667z M635.9686666666666 475.8086666666667L208.8753333333333 48.7153333333334C204.8713333333333 44.7113333333335 198.198 44.7113333333335 194.194 48.7153333333334L114.114 128.7953333333335L34.034 208.8753333333335C30.03 212.8793333333334 30.03 219.5526666666667 34.034 223.5566666666669L84.7513333333333 274.2740000000001L106.7733333333333 296.2960000000001C110.7773333333333 300.3000000000001 117.4506666666667 300.3000000000001 121.4546666666666 296.2960000000001L194.194 223.5566666666667C198.198 219.5526666666667 204.8713333333333 219.5526666666667 208.8753333333333 223.5566666666667L549.2153333333333 563.8966666666668C553.2193333333332 567.9006666666667 559.8926666666666 567.9006666666667 563.8966666666666 563.8966666666668L636.636 491.1573333333333C639.9726666666667 486.4860000000001 639.9726666666667 479.8126666666667 635.9686666666666 475.8086666666667z" />
    <glyph glyph-name="cloud-check"
      unicode="&#xE012;"
      horiz-adv-x="1290.6226666666666" d=" M1137.136 499.1653333333334C1102.4346666666668 503.1693333333333 1069.068 496.496 1040.3726666666666 482.482C1041.04 488.4880000000001 1041.04 494.494 1041.04 500.5000000000001C1041.04 642.642 926.2586666666668 757.4233333333334 784.1166666666666 757.4233333333334C725.3913333333333 757.4233333333334 671.3373333333333 737.4033333333334 627.9606666666666 704.0366666666666C560.56 796.796 449.7826666666667 854.854 324.9913333333334 846.846C150.8173333333333 836.1686666666667 10.01 694.0266666666666 0.6673333333333 519.8526666666667C-3.3366666666667 450.45 13.3466666666667 385.0513333333335 45.3786666666667 329.6626666666667C50.05 322.3220000000001 60.06 320.3200000000001 66.7333333333333 326.9933333333334L91.4246666666667 351.6846666666668C95.4286666666667 355.6886666666667 100.1 359.6926666666667 105.4386666666667 362.362C111.4446666666667 365.6986666666667 112.7793333333333 373.7066666666667 110.11 379.7126666666667C90.7573333333333 415.7486666666668 80.08 457.1233333333333 80.08 500.5000000000001C80.08 647.9806666666667 199.5326666666667 767.4333333333334 347.0133333333333 767.4333333333334C432.432 767.4333333333334 513.1793333333334 726.0586666666667 563.2293333333333 657.3233333333334L607.2733333333333 596.596C609.2753333333333 593.2593333333334 613.9466666666666 593.2593333333334 616.616 595.2613333333334L674.0066666666667 639.3053333333334C701.3673333333332 660.6600000000001 734.7339999999999 674.0066666666667 769.4353333333332 677.3433333333334C873.5393333333333 685.3513333333334 960.96 602.6020000000001 960.96 500.5000000000001C960.96 497.1633333333334 960.96 493.1593333333334 960.2926666666666 487.8206666666666L952.2846666666666 371.7046666666667C951.6173333333334 361.6946666666667 962.2946666666666 354.3540000000001 971.6373333333333 359.0253333333333L1075.7413333333334 411.0773333333333C1088.4206666666666 417.7506666666666 1102.4346666666668 421.0873333333333 1117.116 421.0873333333333C1159.8253333333334 421.0873333333333 1196.5286666666666 393.0593333333333 1207.206 351.6846666666666C1222.5546666666667 293.6266666666666 1180.5126666666665 238.9053333333333 1124.4566666666667 234.9013333333333L1119.7853333333333 234.2339999999999H450.45C445.1113333333334 234.2339999999999 439.7726666666667 232.232 436.4360000000001 228.2279999999999L385.0513333333334 176.8433333333333C376.3760000000001 168.1679999999999 382.382 154.1539999999999 394.394 154.1539999999999H1131.7973333333332V154.8213333333331C1225.8913333333333 162.1619999999998 1298.6306666666665 244.9113333333331 1290.6226666666666 342.3419999999998C1283.9493333333332 423.0893333333335 1218.5506666666665 490.49 1137.136 499.1653333333334z M563.2293333333333 460.46C566.566 457.1233333333333 566.566 451.7846666666667 563.2293333333333 449.1153333333333L284.2840000000001 170.1700000000001L220.22 106.1060000000001C216.8833333333334 102.7693333333334 211.5446666666667 102.7693333333334 208.8753333333334 106.1060000000001L144.8113333333334 170.1700000000001L80.7473333333334 234.2340000000001C77.4106666666667 237.5706666666667 77.4106666666667 242.9093333333333 80.7473333333334 245.5786666666667L138.8053333333334 303.6366666666667C142.1420000000001 306.9733333333334 147.4806666666667 306.9733333333334 150.1500000000001 303.6366666666667L208.2080000000001 245.5786666666667C211.5446666666667 242.2420000000001 216.8833333333334 242.2420000000001 219.5526666666668 245.5786666666667L492.492 518.518C495.8286666666667 521.8546666666666 501.1673333333334 521.8546666666666 503.8366666666667 518.518L563.2293333333333 460.46z" />
    <glyph glyph-name="cloud-solid"
      unicode="&#xE013;"
      horiz-adv-x="1290.6226666666666" d=" M1290.6226666666666 326.9933333333334C1290.6226666666666 235.5686666666667 1220.5526666666667 161.4946666666667 1131.1299999999999 154.154V153.4866666666667H340.34V153.4866666666667C152.152 156.8233333333334 0 310.9773333333334 0 500.5000000000001C0 692.0246666666667 155.4886666666667 847.5133333333333 347.0133333333333 847.5133333333333C462.4619999999999 847.5133333333333 564.564 790.79 627.9606666666666 704.0366666666666C671.3373333333333 737.4033333333334 725.3913333333333 757.4233333333334 784.1166666666666 757.4233333333334C926.2586666666668 757.4233333333334 1041.04 642.642 1041.04 500.5000000000001C1041.04 494.494 1041.04 488.4880000000001 1040.3726666666666 482.482C1063.7293333333332 493.8266666666667 1089.7553333333333 500.5000000000001 1117.116 500.5000000000001C1213.212 500.5000000000001 1290.6226666666666 423.0893333333335 1290.6226666666666 326.9933333333334z" />
    <glyph glyph-name="cloud"
      unicode="&#xE014;"
      horiz-adv-x="1290.6226666666666" d=" M1117.116 500.5000000000001C1089.7553333333333 500.5000000000001 1063.062 493.8266666666667 1040.3726666666666 482.482C1041.04 488.4880000000001 1041.04 494.494 1041.04 500.5000000000001C1041.04 642.642 926.2586666666668 757.4233333333334 784.1166666666666 757.4233333333334C725.3913333333333 757.4233333333334 671.3373333333333 737.4033333333334 627.9606666666666 704.0366666666666C564.564 790.79 462.4619999999999 847.5133333333333 347.0133333333333 847.5133333333333C155.4886666666667 847.5133333333333 0 692.0246666666667 0 500.5000000000001C0 310.9773333333334 151.4846666666667 157.4906666666667 340.34 153.4866666666667V153.4866666666667H1131.7973333333332V154.154C1221.22 161.4946666666666 1291.29 236.236 1291.29 326.9933333333334C1290.6226666666666 423.0893333333335 1213.212 500.5000000000001 1117.116 500.5000000000001zM1125.1239999999998 234.2340000000001L1120.4526666666666 233.5666666666667H349.0153333333333L341.6746666666666 233.5666666666667C197.5306666666667 236.2360000000001 80.08 356.3560000000001 80.08 500.5000000000001C80.08 647.9806666666667 199.5326666666667 767.4333333333334 347.0133333333333 767.4333333333334C432.432 767.4333333333334 513.1793333333334 726.0586666666667 563.2293333333333 657.3233333333334L611.2773333333333 590.59L676.676 640.6400000000001C708.0406666666667 664.664 744.744 677.3433333333334 784.1166666666666 677.3433333333334C881.5473333333332 677.3433333333334 960.96 597.9306666666666 960.96 500.5000000000001C960.96 497.1633333333334 960.96 493.1593333333334 960.2926666666666 487.8206666666666L950.2826666666666 348.348L1075.7413333333334 410.41C1088.4206666666666 417.0833333333333 1102.4346666666668 420.42 1117.116 420.42C1168.5006666666666 420.42 1210.5426666666667 378.378 1210.5426666666667 326.9933333333334C1210.5426666666667 278.9453333333334 1173.172 237.5706666666667 1125.1239999999998 234.2340000000001z" />
    <glyph glyph-name="dailer-solid"
      unicode="&#xE015;"
      horiz-adv-x="997.299971566676" d=" M997.299971566676 216.2382001706001A216.30935456354845 216.30935456354845 0 0 0 780.9906170031276 1e-13A219.22668467443842 219.22668467443842 0 0 0 752.5288598237132 1.850014216662A780.4213818595395 780.4213818595395 0 0 0 1.7077054307648 757.9365936878021A203.1457918680694 203.1457918680694 0 0 0 0 784.5483366505546A214.60164913278362 214.60164913278362 0 0 0 2.3480949673017 816.3543502985499A217.30551606482794 217.30551606482794 0 0 0 216.3093545635485 1001A216.16704577765142 216.16704577765142 0 0 0 302.9754051748649 982.7133210122262L316.2812766562411 976.8786607904464L387.4356696047767 652.058856980381L377.8298265567245 641.1722348592551A218.72860392379863 218.72860392379863 0 0 0 290.4522320159226 581.6871623542793A531.9502416832528 531.9502416832528 0 0 1 579.8371481376173 295.4330395223203A215.02857549047482 215.02857549047482 0 0 0 637.3298976400341 377.5452089849304L648.1453653682115 387.1510520329827L972.1824708558428 317.988982087006L978.0882854705713 304.8965737844755A217.59013363662208 217.59013363662208 0 0 0 991.038384987205 267.5405174864942A214.81511231162918 214.81511231162918 0 0 0 997.299971566676 216.2382001706001z" />
    <glyph glyph-name="dailer"
      unicode="&#xE016;"
      horiz-adv-x="997.2288171737275" d=" M780.9906170031277 1e-13A213.46317884560705 213.46317884560705 0 0 0 752.5288598237134 1.850014216662A780.2790730736423 780.2790730736423 0 0 0 1.7077054307648 757.9365936878021A203.78618140460622 203.78618140460622 0 0 0 0 784.5483366505546A214.88626670457776 214.88626670457776 0 0 0 2.3480949673017 816.3543502985499A217.23436167187944 217.23436167187944 0 0 0 216.2382001705999 1001A211.3997014500995 211.3997014500995 0 0 0 258.3616007961331 996.8018908160363A215.02857549047482 215.02857549047482 0 0 0 302.9754051748649 982.5710122263292L316.2812766562411 976.7363520045494L387.4356696047767 651.916548194484L377.7586721637759 641.2433892522035A218.08821438726184 218.08821438726184 0 0 0 290.3810776229741 581.6871623542793A532.0213960762013 532.0213960762013 0 0 1 579.7659937446687 295.4330395223203A215.45550184816602 215.45550184816602 0 0 0 637.329897640034 377.616363377879L648.0742109752629 387.2222064259312L972.1113164628944 318.0601364799545L978.017131077623 304.8965737844755A216.16704577765142 216.16704577765142 0 0 0 780.9194626101792 -0.1423087858968zM216.2382001705999 944.0764856411714A160.0262297412567 160.0262297412567 0 0 1 58.6312197895934 808.1715951094683A158.46083309638894 158.46083309638894 0 0 1 56.9235143588286 784.7617998294A145.65304236565254 145.65304236565254 0 0 1 58.2754478248507 764.4827978390674L58.2754478248507 761.2808501563833A723.2132499289166 723.2132499289166 0 0 1 755.5884987205003 58.7735285754905L758.5769832243388 58.7735285754905A159.3146858117714 159.3146858117714 0 0 1 939.8072220642592 216.5939721353426A157.46467159510942 157.46467159510942 0 0 1 935.253340915553 254.3769547910151H935.253340915553A149.9223059425647 149.9223059425647 0 0 1 930.9129229456922 268.6078333807223L664.6531845322717 325.5313477395508A157.46467159510942 157.46467159510942 0 0 1 625.4471140176287 252.100014216662L618.3316747227751 221.3613164628946L588.4468296843901 231.5363946545354A588.4468296843902 588.4468296843902 0 0 0 225.5594256468581 591.221851009383L214.6728035257322 622.2451663349447L246.9768979243674 628.5779073073643A159.45699459766848 159.45699459766848 0 0 1 325.2467301677566 669.0647568950811L266.9712823429059 935.8225760591412A149.99346033551322 149.99346033551322 0 0 1 247.190361103213 941.1591555302816A155.1877310207563 155.1877310207563 0 0 1 216.2382001705999 944.0764856411714z" />
    <glyph glyph-name="gift"
      unicode="&#xE017;"
      horiz-adv-x="837.334213857245" d=" M820.80788068901 743.6849925705794H541.0170601507897C582.5532441802873 770.6780034120302 620.5087226900006 810.5064663474768 634.6662814374553 832.5966650156844A110.17555445490065 110.17555445490065 0 0 1 448.2492432997634 949.6031038467888A307.05927026580815 307.05927026580815 0 0 1 418.6671069286225 875.8956579164603A307.05927026580815 307.05927026580815 0 0 1 389.1400583347091 949.6031038467888A110.17555445490065 110.17555445490065 0 0 1 202.8331957514721 832.8170161245941C216.7153156127896 810.781905233614 254.6707941225029 770.89835452094 296.4824170381377 743.9053436794893H16.5263331682351A16.526333168235098 16.526333168235098 0 0 1 0 727.3790105112541V529.063012492433H837.334213857245V727.3790105112541A16.526333168235098 16.526333168235098 0 0 1 820.80788068901 743.6849925705794zM453.8681965769633 830.7236805899511C460.4236420670298 870.4970557481702 475.0769908095316 909.6093775796598 485.4885807055197 926.1907985251224A66.10533267294039 66.10533267294039 0 0 0 597.1515051455615 856.0089703373508C586.7399152495734 839.4826371691156 557.818832205162 809.2945352484728 524.8212536459192 786.1576688129437C488.1878817896647 760.4316768477244 465.6018931264102 756.9060591051675 459.3769742997083 760.8172912883166S446.5966099829398 786.5983710307632 453.8681965769632 830.7236805899511zM240.237796488911 856.0089703373508A66.10533267294039 66.10533267294039 0 0 0 351.9007209289527 926.4662374112598C362.3123108249408 909.9399042430246 376.9656595674427 870.8275824115349 383.5211050575092 830.9991194760883C390.7926916515326 786.928897694128 384.1821583842387 764.8937868031479 378.0123273347642 761.0927301744539S349.2014198448076 760.7071157338617 312.5680479885532 786.433107699081C279.5704694293105 809.2945352484728 250.6493863848991 839.4275493918882 240.237796488911 856.0089703373508z M33.0526663364702 16.5263331682352A16.526333168235098 16.526333168235098 0 0 1 49.5789995047053 0H787.7552143525397A16.526333168235098 16.526333168235098 0 0 1 804.2815475207748 16.5263331682352V484.772439601563H33.0526663364702z" />
    <glyph glyph-name="home-solid"
      unicode="&#xE018;"
      horiz-adv-x="1138.909475465313" d=" M1135.0659898477159 422.2622673434857L1098.2597292724197 385.4560067681896A13.028764805414552 13.028764805414552 0 0 0 1079.8891708967851 385.4560067681896L1021.6505922165823 443.6945854483926A13.028764805414552 13.028764805414552 0 0 1 999.4365482233504 434.4441624365483V13.0287648054145A13.028764805414552 13.028764805414552 0 0 0 986.4077834179358 0H680.2318104906939V475.5499153976311A13.028764805414552 13.028764805414552 0 0 1 667.2030456852793 488.5786802030457H465.2571912013537A13.028764805414552 13.028764805414552 0 0 1 452.2284263959392 475.5499153976311V0H152.5668358714045A13.028764805414552 13.028764805414552 0 0 0 139.53807106599 13.0287648054145V434.3790186125213A13.028764805414552 13.028764805414552 0 0 1 117.3240270727582 443.6294416243656L59.085448392555 385.4560067681896A13.028764805414552 13.028764805414552 0 0 0 40.6497461928934 385.4560067681896L3.7783417935702 422.3274111675127A13.028764805414552 13.028764805414552 0 0 0 3.7783417935702 440.6979695431472L200.8384094754654 637.6277495769882A13.028764805414552 13.028764805414552 0 0 1 204.6818950930627 646.8781725888325V898.919627749577A13.028764805414552 13.028764805414552 0 0 0 217.7106598984772 911.9483925549916H341.4839255499154A13.028764805414552 13.028764805414552 0 0 0 354.51269035533 898.919627749577V822.831641285956A13.028764805414552 13.028764805414552 0 0 1 376.7267343485618 813.5812182741117L560.3020304568528 997.1565143824027A13.028764805414552 13.028764805414552 0 0 0 578.6725888324872 997.1565143824027L807.1971235194584 768.6319796954315L885.3697123519456 690.4593908629441L921.3291032148898 654.5L1135.0659898477159 440.6328257191202A13.028764805414552 13.028764805414552 0 0 0 1135.0659898477159 422.2622673434857z" />
    <glyph glyph-name="home"
      unicode="&#xE019;"
      horiz-adv-x="1138.8443316412859" d=" M1135.0008460236886 440.7631133671743L999.3714043993232 576.3925549915398L921.1988155668358 654.565143824027L885.2394247038916 690.5245346869712L807.0668358714044 768.6971235194585L578.6074450084603 997.2216582064298A13.028764805414552 13.028764805414552 0 0 1 560.1717428087987 997.2216582064298L376.6615905245348 813.7115059221658A13.028764805414552 13.028764805414552 0 0 0 354.447546531303 822.896785109983V898.9847715736041A13.028764805414552 13.028764805414552 0 0 1 341.4187817258884 912.0135363790185H217.6455160744502A13.028764805414552 13.028764805414552 0 0 1 204.6167512690356 898.9847715736041V646.9433164128595A13.028764805414552 13.028764805414552 0 0 0 200.7732656514383 637.7580372250422L139.4729272419628 576.3925549915398L3.7783417935702 440.7631133671743A13.028764805414552 13.028764805414552 0 0 1 3.7783417935702 422.3274111675127L40.5846023688663 385.5211505922166A13.028764805414552 13.028764805414552 0 0 1 59.0203045685279 385.5211505922166L117.1937394247039 443.6945854483925A13.028764805414552 13.028764805414552 0 0 0 139.4077834179357 434.5093062605753V13.0939086294416A13.028764805414552 13.028764805414552 0 0 1 152.4365482233503 0.065143824027H478.1556683587141A13.028764805414552 13.028764805414552 0 0 1 491.1844331641286 13.0939086294416V443.0431472081218A13.028764805414552 13.028764805414552 0 0 0 504.2131979695432 456.0719120135363H634.5008460236887A13.028764805414552 13.028764805414552 0 0 0 647.5296108291033 443.0431472081218V13.0939086294416A13.028764805414552 13.028764805414552 0 0 1 660.5583756345178 0.065143824027H986.2774957698816A13.028764805414552 13.028764805414552 0 0 1 999.3062605752962 13.0939086294416V434.4441624365483A13.028764805414552 13.028764805414552 0 0 0 1021.520304568528 443.6294416243655L1079.693739424704 385.4560067681895A13.028764805414552 13.028764805414552 0 0 1 1098.1294416243657 385.4560067681895L1134.9357021996618 422.2622673434857A13.028764805414552 13.028764805414552 0 0 1 1135.0008460236886 440.7631133671743zM921.1336717428088 91.2664974619289A13.028764805414552 13.028764805414552 0 0 0 908.1049069373942 78.2377326565144H738.7309644670049A13.028764805414552 13.028764805414552 0 0 0 725.7021996615904 91.2664974619289V521.215736040609A13.028764805414552 13.028764805414552 0 0 1 712.6734348561758 534.2445008460236H426.0406091370557A13.028764805414552 13.028764805414552 0 0 1 413.0118443316412 521.215736040609V91.2664974619289A13.028764805414552 13.028764805414552 0 0 0 399.9830795262266 78.2377326565144H230.6091370558374A13.028764805414552 13.028764805414552 0 0 0 217.5803722504229 91.2664974619289V538.6742808798647A13.028764805414552 13.028764805414552 0 0 0 221.4238578680202 547.8595600676819L289.3037225042301 615.7394247038917L364.1539763113368 690.5245346869712L560.2368866328258 886.6074450084602A13.028764805414552 13.028764805414552 0 0 0 578.6725888324873 886.6074450084602L774.7554991539764 690.5245346869712L917.4204737732658 547.9247038917089A13.028764805414552 13.028764805414552 0 0 0 921.263959390863 538.7394247038917z" />
    <glyph glyph-name="lock-open"
      unicode="&#xE01A;"
      horiz-adv-x="667.3333333333334" d=" M638.7333333333333 476.6666666666666H143V710.3286666666667C143 813.5746666666666 223.1753333333333 901.6626666666666 326.326 905.5713333333334A190.66666666666666 190.66666666666666 0 0 0 524.3333333333334 714.9046666666666V629.1046666666666A47.666666666666664 47.666666666666664 0 0 1 619.6666666666666 629.1046666666666V714.9046666666666A286 286 0 0 1 324.9913333333334 1000.9046666666666C169.8839999999999 996.3286666666665 47.6666666666667 864.578 47.6666666666667 708.8986666666667V476.6666666666667H28.6A28.599999999999998 28.599999999999998 0 0 1 0 448.0666666666667V28.6A28.599999999999998 28.599999999999998 0 0 1 28.6 0H638.7333333333333A28.599999999999998 28.599999999999998 0 0 1 667.3333333333334 28.6V448.0666666666667A28.599999999999998 28.599999999999998 0 0 1 638.7333333333333 476.6666666666666z" />
    <glyph glyph-name="lock"
      unicode="&#xE01B;"
      horiz-adv-x="667.3333333333334" d=" M638.7333333333333 476.6666666666666H619.6666666666666V715A286 286 0 0 1 47.6666666666667 715V476.6666666666666H28.6A28.599999999999998 28.599999999999998 0 0 1 0 448.0666666666666V28.6A28.599999999999998 28.599999999999998 0 0 1 28.6 0H638.7333333333333A28.599999999999998 28.599999999999998 0 0 1 667.3333333333334 28.6V448.0666666666667A28.599999999999998 28.599999999999998 0 0 1 638.7333333333333 476.6666666666666zM143 715A190.66666666666666 190.66666666666666 0 1 0 524.3333333333334 715V476.6666666666666H143z" />
    <glyph glyph-name="microphone"
      unicode="&#xE01C;"
      horiz-adv-x="702.8297872340426" d=" M354.9645390070923 319.4680851063829A177.48226950354606 177.48226950354606 0 0 1 532.4468085106383 496.950354609929C532.4468085106383 498.1572340425532 532.4468085106383 499.2931205673759 532.4468085106383 500.5V827.0673758865248A177.48226950354606 177.48226950354606 0 0 1 177.4822695035461 827.0673758865248V500.5C177.4822695035461 499.2931205673759 177.4822695035461 498.1572340425532 177.4822695035461 496.950354609929A177.48226950354606 177.48226950354606 0 0 1 354.9645390070923 319.4680851063829z M667.3333333333334 70.9929078014184H390.4609929078015V179.5410638297874A319.8940425531915 319.8940425531915 0 0 1 674.4326241134752 497.0213475177306C674.4326241134752 498.9381560283689 674.4326241134752 500.9259574468086 674.4326241134752 502.6297872340427V638.9361702127659A35.49645390070922 35.49645390070922 0 0 1 603.4397163120568 638.9361702127659V500.6419858156029C603.4397163120568 499.5770921985816 603.4397163120568 498.2992198581561 603.4397163120568 497.0213475177305A248.47517730496457 248.47517730496457 0 0 0 106.4893617021277 497.0213475177305C106.4893617021277 498.3702127659574 106.4893617021277 499.7190780141844 106.4893617021277 500.99695035461V638.9361702127659A35.49645390070922 35.49645390070922 0 1 1 35.4964539007092 638.9361702127659V502.6297872340425C35.4964539007092 500.7129787234043 35.4964539007092 498.7961702127658 35.4964539007092 496.950354609929A319.8940425531915 319.8940425531915 0 0 1 319.468085106383 179.4700709219858V70.9929078014184H35.4964539007092A35.49645390070922 35.49645390070922 0 0 1 0 35.4964539007092V14.1985815602836A14.198581560283687 14.198581560283687 0 0 1 14.1985815602837 0H688.6312056737589A14.198581560283687 14.198581560283687 0 0 1 702.8297872340426 14.1985815602836V35.4964539007092A35.49645390070922 35.49645390070922 0 0 1 667.3333333333334 70.9929078014184z" />
    <glyph glyph-name="moon-solid"
      unicode="&#xE01D;"
      horiz-adv-x="1010.9500073088731" d=" M1009.9257418506066 368.2234322467475A520.9853091653267 520.9853091653267 0 0 0 939.5440725040198 221.1681771670808A515.2055255079667 515.2055255079667 0 0 0 828.6307557374653 104.5482385616137A506.27978365736004 506.27978365736004 0 0 0 518.1319982458705 -0.0731618184477H518.1319982458705A517.4003800613946 517.4003800613946 0 0 0 151.8107732787604 150.2012132729132A506.86507820494074 506.86507820494074 0 0 0 0 513.3764800467768A494.5738927057447 494.5738927057447 0 0 0 105.6456658383277 820.6561175266775A512.9375091360912 512.9375091360912 0 0 0 223.4361935389563 930.3988451980704A528.5209764654289 528.5209764654289 0 0 0 371.8083613506797 999.902572723286A25.313989182868003 25.313989182868003 0 0 0 398.4392632656045 991.8547726940506A24.801856453734835 24.801856453734835 0 0 0 401.4388978219559 964.49225259465A397.1223505335478 397.1223505335478 0 0 1 353.7373921941237 775.7347609998538C353.7373921941237 541.177971056863 546.4456219850899 350.2987867270868 783.3435901184037 350.2987867270868A406.5602251132875 406.5602251132875 0 0 1 974.0032889928372 397.6344832626809A25.460312819763196 25.460312819763196 0 0 0 1001.5852945475808 394.6348487063296A25.094503727525222 25.094503727525222 0 0 0 1009.9257418506066 368.2234322467475z" />
    <glyph glyph-name="moon"
      unicode="&#xE01E;"
      horiz-adv-x="1010.9500073088731" d=" M518.1319982458705 0.0731618184476A517.2540564244994 517.2540564244994 0 0 0 151.8107732787604 150.3475369098085A507.0845636602836 507.0845636602836 0 0 0 0 513.3764800467768A494.9397017979828 494.9397017979828 0 0 0 105.6456658383277 820.6561175266775A515.351849144862 515.351849144862 0 0 0 223.4361935389563 930.3988451980704A528.8867855576672 528.8867855576672 0 0 0 371.8083613506797 999.9757345417336A25.460312819763196 25.460312819763196 0 0 0 398.4392632656045 991.9279345124982A24.801856453734835 24.801856453734835 0 0 0 401.4388978219559 964.5654144130976A396.7565414413097 396.7565414413097 0 0 1 353.6642303756761 775.8079228183014C353.6642303756761 541.2511328753105 546.3724601666422 350.3719485455342 783.2704282999562 350.3719485455342A406.99919602397324 406.99919602397324 0 0 1 973.9301271743898 397.6344832626808A25.460312819763196 25.460312819763196 0 0 0 1001.5852945475808 394.6348487063294A25.02134190907762 25.02134190907762 0 0 0 1009.706256395264 368.2234322467475A520.4731764361935 520.4731764361935 0 0 0 939.3245870486772 221.1681771670808A514.4007455050431 514.4007455050431 0 0 0 828.4112702821226 104.4750767431661A506.3529454758076 506.3529454758076 0 0 0 518.1319982458705 -0.0731618184477zM332.0814939336354 932.666861569946C161.5412951322906 860.3829849437217 50.5548165472884 698.0369098085075 50.5548165472884 513.3764800467768C50.5548165472884 258.1148954831165 260.3097500365444 50.4084929103932 518.0588364274229 50.4084929103932A459.52938166934666 459.52938166934666 0 0 1 941.885250694343 329.1550211957315A450.38415436339716 450.38415436339716 0 0 0 783.4167519368515 300.6219120011694A479.3562344686449 479.3562344686449 0 0 0 443.9459143400089 439.6293670516005A470.0646835258003 470.0646835258003 0 0 0 303.255737465283 776.1737319105392A438.97091068557233 438.97091068557233 0 0 0 332.0814939336354 932.666861569946z" />
    <glyph glyph-name="navicon"
      unicode="&#xE01F;"
      horiz-adv-x="1235.8024691358025" d=" M24.7160493827161 1001H1211.0864197530864A24.71604938271605 24.71604938271605 0 0 0 1235.8024691358025 976.283950617284V827.9876543209876A24.71604938271605 24.71604938271605 0 0 0 1211.0864197530864 803.2716049382716H24.7160493827161A24.71604938271605 24.71604938271605 0 0 0 0 827.9876543209876V976.283950617284A24.71604938271605 24.71604938271605 0 0 0 24.7160493827161 1001z M24.7160493827161 197.7283950617284H1211.0864197530864A24.71604938271605 24.71604938271605 0 0 0 1235.8024691358025 173.0123456790123V24.7160493827159A24.71604938271605 24.71604938271605 0 0 0 1211.0864197530864 0H24.7160493827161A24.71604938271605 24.71604938271605 0 0 0 0 24.7160493827159V173.0123456790123A24.71604938271605 24.71604938271605 0 0 0 24.7160493827161 197.7283950617284z M24.7160493827161 604.9253086419753H1211.0864197530864A24.71604938271605 24.71604938271605 0 0 0 1235.8024691358025 580.2092592592593V431.912962962963A24.71604938271605 24.71604938271605 0 0 0 1211.0864197530864 407.196913580247H24.7160493827161A24.71604938271605 24.71604938271605 0 0 0 0 431.912962962963V580.2092592592593A24.71604938271605 24.71604938271605 0 0 0 24.7160493827161 604.9253086419753z" />
    <glyph glyph-name="pencil"
      unicode="&#xE020;"
      horiz-adv-x="1001.0000000000001" d=" M958.4919572770558 836.3135375112598A647.4747780208469 647.4747780208469 0 0 1 901.5569424784456 901.7501608544588A640.3901042336896 640.3901042336896 0 0 1 772.7446918028568 1001L634.7223652039635 862.4624243984042L585.387273195213 813.1273323896538L0 227.7400591944409V-1e-13H227.740059194441L1001.0000000000002 773.2599408055592A622.4852013897827 622.4852013897827 0 0 1 958.4919572770558 836.3135375112598zM180.3371509458243 57.9655128040147H57.9655128040149L132.1613691931541 132.1613691931539A449.6835671084803 449.6835671084803 0 0 1 199.2725517951358 76.9009136533263zM778.1548063312316 655.84757431476L245.8381804143611 123.5309483978894A387.7892806588599 387.7892806588599 0 0 0 177.7609059323124 177.8253120576501L723.9248487968086 723.9892549221463L769.5243855359671 769.5887916613048L862.5912366490799 862.6556427744176A567.6111826019817 567.6111826019817 0 0 0 919.1398146956634 796.8325826791918z" />
    <glyph glyph-name="search-min"
      unicode="&#xE021;"
      horiz-adv-x="1006.923076923077" d=" M895.3915384615384 870.87A413.1938461538462 413.1938461538462 0 0 1 595.2692307692307 1001.1776923076922C586.3253846153846 1001.1776923076922 577.4999999999999 1001.1776923076922 568.2007692307691 1000.2892307692308A411.416923076923 411.416923076923 0 0 1 262.9253846153846 346.736923076923L12.1423076923077 95.8353846153847A41.46153846153847 41.46153846153847 0 0 1 12.1423076923077 37.196923076923L37.2561538461539 12.0830769230769A41.46153846153847 41.46153846153847 0 0 1 95.8946153846154 12.0830769230769L345.9076923076924 262.0961538461538A411.416923076923 411.416923076923 0 0 1 595.2692307692308 177.633076923077H595.2692307692308Q603.6800000000001 177.633076923077 612.2092307692308 177.9884615384616A411.4761538461539 411.4761538461539 0 0 1 895.3915384615386 870.9884615384616zM888.4615384615385 589.4053846153845A293.19230769230774 293.19230769230774 0 1 0 595.2692307692308 882.5976923076922A293.54769230769233 293.54769230769233 0 0 0 888.4615384615385 589.3461538461538z M396.8461538461539 645.6153846153845H781.8461538461539A17.76923076923077 17.76923076923077 0 0 0 799.6153846153846 627.8461538461538V574.5384615384615A17.76923076923077 17.76923076923077 0 0 0 781.8461538461539 556.7692307692307H396.8461538461539A17.76923076923077 17.76923076923077 0 0 0 379.0769230769231 574.5384615384615V627.8461538461538A17.76923076923077 17.76923076923077 0 0 0 396.8461538461539 645.6153846153845z" />
    <glyph glyph-name="search-zoom"
      unicode="&#xE022;"
      horiz-adv-x="1006.923076923077" d=" M895.3915384615384 870.87A413.1938461538462 413.1938461538462 0 0 1 595.2692307692307 1001.1776923076922C586.3253846153846 1001.1776923076922 577.4999999999999 1001.1776923076922 568.2007692307691 1000.2892307692308A411.416923076923 411.416923076923 0 0 1 262.9253846153846 346.736923076923L12.1423076923077 95.8353846153847A41.46153846153847 41.46153846153847 0 0 1 12.1423076923077 37.196923076923L37.2561538461539 12.0830769230769A41.46153846153847 41.46153846153847 0 0 1 95.8946153846154 12.0830769230769L345.9076923076924 262.0961538461538A411.416923076923 411.416923076923 0 0 1 595.2692307692308 177.633076923077H595.2692307692308Q603.6800000000001 177.633076923077 612.2092307692308 177.9884615384616A411.4761538461539 411.4761538461539 0 0 1 895.3915384615386 870.9884615384616zM595.2692307692307 296.3315384615385A293.19230769230774 293.19230769230774 0 1 0 888.4615384615385 589.5238461538461A293.54769230769233 293.54769230769233 0 0 0 595.2692307692308 296.1538461538461z M781.8461538461539 645.6153846153845H633.7692307692308V793.6923076923076A17.76923076923077 17.76923076923077 0 0 1 616 811.4615384615385H562.6923076923077A17.76923076923077 17.76923076923077 0 0 1 544.9230769230769 793.6923076923076V645.6153846153845H396.8461538461539A17.76923076923077 17.76923076923077 0 0 1 379.0769230769231 627.8461538461538V574.5384615384615A17.76923076923077 17.76923076923077 0 0 1 396.8461538461539 556.7692307692307H544.9230769230769V408.6923076923076A17.76923076923077 17.76923076923077 0 0 1 562.6923076923077 390.9230769230769H616A17.76923076923077 17.76923076923077 0 0 1 633.7692307692308 408.6923076923076V556.7692307692307H781.8461538461539A17.76923076923077 17.76923076923077 0 0 1 799.6153846153846 574.5384615384615V627.8461538461538A17.76923076923077 17.76923076923077 0 0 1 781.8461538461539 645.6153846153845z" />
    <glyph glyph-name="search"
      unicode="&#xE023;"
      horiz-adv-x="1006.923076923077" d=" M895.3915384615384 870.87A413.1938461538462 413.1938461538462 0 0 1 595.2692307692307 1001.1776923076922C586.3253846153846 1001.1776923076922 577.4999999999999 1001.1776923076922 568.2007692307691 1000.2892307692308A411.416923076923 411.416923076923 0 0 1 262.9253846153846 346.736923076923L12.1423076923077 95.8353846153847A41.46153846153847 41.46153846153847 0 0 1 12.1423076923077 37.196923076923L37.2561538461539 12.0830769230769A41.46153846153847 41.46153846153847 0 0 1 95.8946153846154 12.0830769230769L345.9076923076924 262.0961538461538A411.416923076923 411.416923076923 0 0 1 595.2692307692308 177.633076923077H595.2692307692308Q603.6800000000001 177.633076923077 612.2092307692308 177.9884615384616A411.4761538461539 411.4761538461539 0 0 1 895.3915384615386 870.9884615384616zM888.4615384615385 589.4053846153845A293.19230769230774 293.19230769230774 0 1 0 595.2692307692308 882.5976923076922A293.54769230769233 293.54769230769233 0 0 0 888.4615384615385 589.3461538461538z" />
    <glyph glyph-name="shield-lock-solid"
      unicode="&#xE024;"
      horiz-adv-x="876.4975124378109" d=" M791.7362189054724 1001H84.5620895522386C37.8487562189053 1001 -0.1992039800997 959.1671641791044 -0.1992039800997 907.672935323383V476.5955223880597C-0.1992039800997 363.0492537313434 112.849054726368 234.2638805970151 180.2796019900496 167.8293532338308C243.1284577114426 105.5781094527363 368.2285572139302 0.1992039800996 438.0495522388057 0.1992039800996C503.986069651741 0.1992039800996 629.1857711442783 105.4785074626867 692.7318407960197 167.6301492537314C761.2580099502485 234.662288557214 876.2983084577113 364.0452736318408 876.2983084577113 476.3963184079602V907.6729353233832C876.4975124378109 959.1671641791044 838.449552238806 1001 791.7362189054724 1001zM640.7396019900496 278.7859701492538A17.330746268656714 17.330746268656714 0 0 0 623.4088557213928 261.4552238805971H253.0886567164179A17.330746268656714 17.330746268656714 0 0 0 235.7579104477612 278.7859701492538V533.368656716418A17.330746268656714 17.330746268656714 0 0 0 253.0886567164179 550.7990049751245H264.6424875621891V691.5366169154229A175.99671641791042 175.99671641791042 0 0 0 432.9698507462686 868.7285572139303A173.8054726368159 173.8054726368159 0 0 0 612.2534328358208 695.2218905472637V643.1300497512437A28.984179104477608 28.984179104477608 0 0 0 554.3846766169154 643.1300497512437V695.4210945273633A115.83711442786068 115.83711442786068 0 0 1 433.7666666666667 811.0590049751244A117.53034825870645 117.53034825870645 0 0 1 322.5112437810946 692.6322388059702V550.7990049751245H623.408855721393A17.330746268656714 17.330746268656714 0 0 0 640.7396019900497 533.368656716418z" />
    <glyph glyph-name="shield"
      unicode="&#xE025;"
      horiz-adv-x="876.5323992994746" d=" M791.7035415450476 1001H84.828857754427C38.0804631251216 1001 0 959.1212298112474 0 907.6006032302004V476.5414477524811C0 362.9818057987937 113.0726795096322 234.2289355905819 180.4682817668808 167.6124732438218C243.3838295388208 105.378672893559 368.4357851722125 -1e-13 438.2661996497373 -1e-13C504.20091457482 -1e-13 629.3502626970228 105.2812804047479 692.9475578906403 167.4176882661996C761.1223000583772 234.5211130570149 876.5323992994746 363.7609457092819 876.5323992994746 476.541447752481V907.6979957190114C876.5323992994746 959.2186223000584 838.451936174353 1001 791.7035415450476 1001zM438.2661996497373 91.1593695271453V910.0354154504766H785.1782447947072A8.8627164818058 8.8627164818058 0 0 0 785.1782447947072 907.6979957190114V476.638840241292C785.1782447947072 420.8329441525588 728.9827787507298 331.7188168904456 634.7068495816308 238.1246351430239C543.6448725432964 147.6470130375559 461.2508270091458 96.1263864565091 438.2661996497374 91.1593695271452z" />
    <glyph glyph-name="star-half-solid"
      unicode="&#xE026;"
      horiz-adv-x="1051.6759976176295" d=" M514.5104228707563 992.6533650982728L398.2537224538416 636.1328171530673C396.4651578320429 631.3633114949375 392.2918403811792 627.78618225134 386.9261465157831 627.78618225134H11.9237641453246C0.5961882072662 627.78618225134 -4.7695056581298 612.8814770696845 4.7695056581298 606.3234067897558L308.2293031566408 385.7337701012508C312.4026206075045 382.7528290649197 314.1911852293032 377.3871351995236 312.4026206075045 372.6176295413938L196.7421083978559 15.500893388922C193.1649791542585 4.7695056581298 205.6849315068493 -4.7695056581299 215.223942823109 2.384752829065L518.68374032162 222.97438951757C519.8761167361524 224.1667659321024 521.068493150685 224.1667659321024 522.8570577724836 224.7629541393689V1000.4038117927338C519.2799285288862 999.8076235854676 515.7027992852888 997.4228707564026 514.5104228707563 992.6533650982728z" />
    <glyph glyph-name="star-half"
      unicode="&#xE027;"
      horiz-adv-x="1051.0768268715383" d=" M1048.5729855279612 623.1584182002264A11.923054017032934 11.923054017032934 0 0 1 1039.451849204931 627.748793996784H664.3525698290752A11.923054017032934 11.923054017032934 0 0 0 653.0256685128938 635.9757012685368L537.0739681972485 992.7730927282474A11.923054017032934 11.923054017032934 0 0 1 514.420165564886 992.7730927282474L398.4684652492407 635.9757012685368A11.923054017032934 11.923054017032934 0 0 0 387.1415639330594 627.748793996784H11.9826692871181A11.923054017032934 11.923054017032934 0 0 1 4.9480674170687 606.1680662259544L308.449407420642 385.5915669108452A11.923054017032934 11.923054017032934 0 0 0 312.7417068667738 372.2377464117683L196.7900065511286 15.5595854922279A11.923054017032934 11.923054017032934 0 0 1 215.1515097373593 2.2653802632364L518.5932344708474 222.8418795783456A11.923054017032934 11.923054017032934 0 0 0 532.6624382109463 222.8418795783456L836.1041629444345 2.2653802632364A11.923054017032934 11.923054017032934 0 0 1 852.7368232981954 4.8884521469836A11.923054017032934 11.923054017032934 0 0 1 854.4656661306651 15.5595854922279L738.6928116252755 372.4762074921089A11.923054017032934 11.923054017032934 0 0 0 742.9851110714073 385.8300279911857L1046.4864510749808 606.406527306295A11.923054017032934 11.923054017032934 0 0 1 1048.5729855279612 623.1584182002264zM899.5348103150496 558.4758501578226L686.767911381097 403.8934548269907A11.923054017032934 11.923054017032934 0 0 1 682.4159966648799 390.5396343279139L763.6716097909593 140.1554999702223A11.923054017032934 11.923054017032934 0 0 0 745.3697218748139 126.8016794711454L532.7816687511166 281.3840748019774A12.51920671788458 12.51920671788458 0 0 1 525.7470668810672 283.6494550652136V846.6560657495087A11.923054017032934 11.923054017032934 0 0 0 537.0739681972485 838.4291584777559L618.329581323328 588.0450241200643A11.923054017032934 11.923054017032934 0 0 1 629.7160979095944 579.8181168483117H892.6790542552558A11.923054017032934 11.923054017032934 0 0 0 904.6021082722888 567.8950628312787A11.923054017032934 11.923054017032934 0 0 0 899.7136561253051 558.4758501578226z" />
    <glyph glyph-name="star-solid"
      unicode="&#xE028;"
      horiz-adv-x="1051.6759976176295" d=" M1046.3103037522335 606.3234067897558L742.8505062537224 385.7337701012508C738.6771888028587 382.7528290649197 736.8886241810601 377.3871351995236 738.6771888028587 372.6176295413938L854.3377010125073 15.500893388922C857.9148302561047 4.7695056581298 845.3948779035138 -4.7695056581299 835.8558665872542 2.384752829065L532.3960690887432 222.97438951757C528.2227516378796 225.9553305539012 522.8570577724835 225.9553305539012 518.0875521143536 222.97438951757L214.6277546158426 2.384752829065C205.088743299583 -4.1733174508635 192.5687909469921 4.7695056581299 196.1459201905895 15.500893388922L311.8064324002381 372.6176295413938C313.5949970220368 377.3871351995236 311.8064324002381 382.7528290649197 307.6331149493745 385.7337701012508L4.1733174508635 606.3234067897558C-5.3656938653962 612.8814770696843 -0.5961882072664 627.78618225134 11.3275759380582 627.78618225134H386.3299583085168C391.6956521739129 627.78618225134 395.8689696247764 631.3633114949375 397.6575342465752 636.1328171530673L514.5104228707563 992.6533650982728C518.0875521143537 1003.384752829065 533.5884455032757 1003.384752829065 537.1655747468731 992.6533650982728L652.8260869565216 635.5366289458011C654.6146515783204 630.7671232876712 658.787969029184 627.189994044074 664.1536628945801 627.189994044074H1039.1560452650388C1051.0798094103634 627.78618225134 1055.849315068493 612.8814770696845 1046.3103037522335 606.3234067897558z" />
    <glyph glyph-name="star"
      unicode="&#xE029;"
      horiz-adv-x="1051.3122915674132" d=" M1039.3303358742257 627.7710219151977H664.2533944735588A11.922343973320627 11.922343973320627 0 0 0 652.9271676989042 635.997439256789L536.9823725583611 992.7735826584088A11.922343973320627 11.922343973320627 0 0 1 514.329919009052 992.7735826584088L398.3851238685088 636.0570509766555A11.922343973320627 11.922343973320627 0 0 0 387.0588970938542 627.8306336350643H11.9223439733206A11.922343973320627 11.922343973320627 0 0 1 4.8881610290615 606.2511910433539L308.3714268699381 385.6878275369222A11.922343973320627 11.922343973320627 0 0 0 312.7230824202001 372.3348022868032L196.7186755597904 15.6778823249165A11.922343973320627 11.922343973320627 0 0 1 215.0790852787041 2.3248570747974L518.5623511195807 222.888220581229A11.922343973320627 11.922343973320627 0 0 0 532.5711052882324 222.888220581229L836.0543711291091 2.3248570747974A11.922343973320627 11.922343973320627 0 0 1 854.4147808480229 15.6778823249165L738.5295974273463 372.513637446403A11.922343973320627 11.922343973320627 0 0 0 742.8812529776084 385.8666626965221L1046.3645188184848 606.4300262029537A11.922343973320627 11.922343973320627 0 0 1 1039.3303358742257 627.7710219151977zM899.600464506908 558.5618151500714L686.8462363030014 403.9886255359695A11.922343973320627 11.922343973320627 0 0 1 682.4945807527394 390.6356002858504L763.7453549309196 140.2663768461173A11.922343973320627 11.922343973320627 0 0 0 745.3849452120057 126.9133515959981L532.6307170080992 281.4865412101001A11.922343973320627 11.922343973320627 0 0 1 518.6219628394474 281.4865412101001L305.8677346355408 127.1517984754645A11.922343973320627 11.922343973320627 0 0 0 287.507324916627 140.5048237255836L368.7580990948071 390.8740471653168A11.922343973320627 11.922343973320627 0 0 1 364.4064435445451 404.227072415436L151.711827060505 558.5618151500714A11.922343973320627 11.922343973320627 0 0 0 158.7460100047642 580.1412577417818H421.6933063363507A11.922343973320627 11.922343973320627 0 0 1 433.0195331110053 588.3676750833731L514.2703072891853 838.7368985231062A11.922343973320627 11.922343973320627 0 0 0 536.9227608384945 838.7368985231062L618.1735350166746 588.3676750833731A11.922343973320627 11.922343973320627 0 0 1 629.4997617913292 580.1412577417818H892.5066698427823A11.922343973320627 11.922343973320627 0 0 0 899.600464506908 558.5618151500714z" />
    <glyph glyph-name="thumbs-down-solid"
      unicode="&#xE02A;"
      horiz-adv-x="995.907122905028" d=" M709.0083798882682 336.9287709497206H906.2325418994413C999.0027932960894 336.9287709497206 1022.2702513966482 487.7178770949721 964.2513966480448 545.7367318435754A146.0956703910615 146.0956703910615 0 0 1 952.6675977653632 684.9420391061451S987.5188547486034 766.1284916201116 917.8163407821232 824.147346368715C917.8163407821232 824.147346368715 975.8351955307264 1160.576815642458 326.1438547486035 905.3337988826815C267.8254189944135 882.1662011173185 279.7087988826816 882.1662011173185 279.7087988826816 673.2583798882681V464.5502793296089C279.7087988826816 406.5314245810055 326.1438547486034 429.6990223463686 395.7465083798883 348.5125698324022S511.7842178770949 244.0586592178769 534.9518156424581 93.2695530726256S906.2325418994413 -57.6194134078212 709.0083798882682 336.9287709497206z M29.9581005586592 921.1117318435754H209.7067039106146A29.95810055865922 29.95810055865922 0 0 0 239.6648044692738 891.1536312849162V421.8100558659218A29.95810055865922 29.95810055865922 0 0 0 209.7067039106146 391.8519553072626H29.9581005586592A29.95810055865922 29.95810055865922 0 0 0 0 421.8100558659218V891.1536312849162A29.95810055865922 29.95810055865922 0 0 0 29.9581005586592 921.1117318435754z" />
    <glyph glyph-name="thumbs-down"
      unicode="&#xE02B;"
      horiz-adv-x="987.6484892477997" d=" M632.7889483712911 0.0908266037563A167.75673713819074 167.75673713819074 0 0 0 588.3747391343798 6.1762090554395C528.8833136738953 22.4341711278468 486.648942927139 67.3933399872968 478.0204155702749 123.5241811087922C462.7615461391888 222.7068324108519 438.5108429362126 248.9557208964703 394.5507667180836 296.5488612648579C384.7414935123855 307.1755739043644 373.5698212503402 319.3463388077306 361.7623627619998 332.8795027674439A194.5505852463479 194.5505852463479 0 0 1 302.0892840940023 380.9267761546139C278.1110607022956 394.5507667180837 245.3226567462118 412.7160874693766 245.3226567462118 468.1203157608202V657.9479176118319C245.3226567462118 689.2830959078124 245.3226567462118 715.4411577896742 244.777697123673 737.3303692949823C243.596951274839 851.4085836131022 243.596951274839 882.1079756827875 316.2582342800109 911.2633154886126C579.6553851737592 1014.8964703747392 761.308592686689 1028.8837673532348 854.3150349333092 952.8619000090736A177.38435713637605 177.38435713637605 0 0 0 917.8936575628348 813.3522366391435A155.85845204609384 155.85845204609384 0 0 0 952.0444605752654 674.2058796842392A178.8375827964795 178.8375827964795 0 0 0 964.3968786861446 550.1367389529082C994.369657925778 501.3628527356865 993.0980854731876 435.24108520098 973.4795390617912 388.0112512476183C952.4077669902914 337.0575265402415 909.9009164322658 306.2673078667998 860.5820705925053 306.2673078667998H751.0451864622086C803.9970964522277 169.1191361945379 778.8381272116869 92.6431358315944 745.0506306142819 51.4986843299157A143.41520733145813 143.41520733145813 0 0 0 632.7889483712911 0.0908266037563zM336.1492605026768 466.303783685691C338.8740586153707 464.5780782143181 343.0520823881681 462.2165865166501 346.5943199346702 460.2184012340078A283.5606569276835 283.5606569276835 0 0 0 430.6997550131567 392.0984484166592C441.3264676526631 379.6552037020234 451.4990472733872 368.6651846474912 461.2174938753289 358.1292986117413C509.8097268850377 305.4498684329916 548.2293802740223 263.8512839125307 567.6662734779059 137.329824879775C571.3901642319208 113.1699482805553 593.1885491334724 99.0009980945467 612.2621359223301 93.7330550766718S658.4928772343708 89.6458579076309 674.750839306778 109.4460575265403C685.9225115688232 123.07004809001 716.6219036385083 179.4733690227747 640.4183830868342 331.69875691861L607.5391525269939 397.4572180382906H860.4004173849922C872.662008892115 397.4572180382906 882.4712820978133 405.9949187913983 889.3741039833046 422.7978404863443C901.6356954904275 452.4981399147083 897.7301515288993 493.1884583976046 881.0180564377098 509.9005534887941L857.8572724798113 533.0613374466927L872.4803556846022 562.3075038562744A87.46601941747575 87.46601941747575 0 0 1 864.7600943653026 643.4156610107975L851.1361038018329 663.8516468560022L860.8545504037746 686.4674711913619A64.39606206333364 64.39606206333364 0 0 1 841.8717902186734 760.3095000453679L821.7082841847382 777.112421740314L826.1587877688049 802.90717720715C826.1587877688049 804.5420560747664 833.2432628618092 853.3159422919881 796.0043553216586 882.9254151165957S650.6817893113147 945.1416386897743 349.3191180473641 826.7945739951003C346.5943199346701 825.7046547500227 340.2364576717176 823.3431630523546 336.8758733327284 821.5266309772253A692.0078940205065 692.0078940205065 0 0 1 335.3318210688685 738.42028854006C335.3318210688685 716.2585972234824 335.8767806914073 689.7372289265948 335.8767806914073 658.0387442155884V468.1203157608202C336.1492605026768 467.2120497232556 336.1492605026768 467.2120497232556 336.1492605026768 466.303783685691z M27.2479811269395 892.4622085110244H190.7358678885764A27.247981126939482 27.247981126939482 0 0 0 217.9838490155159 865.2142273840849V438.3291897286997A27.247981126939482 27.247981126939482 0 0 0 190.7358678885764 411.0812086017602H27.2479811269395A27.247981126939482 27.247981126939482 0 0 0 0 438.3291897286997V865.2142273840849A27.247981126939482 27.247981126939482 0 0 0 27.2479811269395 892.4622085110244z" />
    <glyph glyph-name="thumbs-up-solid"
      unicode="&#xE02C;"
      horiz-adv-x="995.907122905028" d=" M709.0083798882682 664.1710893854749H906.2325418994413C999.0027932960894 664.1710893854749 1022.2702513966482 513.3819832402235 964.2513966480448 455.36312849162A146.0956703910615 146.0956703910615 0 0 0 952.6675977653632 316.1578212290503S987.5188547486034 234.9713687150839 917.8163407821232 176.9525139664804C917.8163407821232 176.9525139664804 975.8351955307264 -159.4769553072626 326.1438547486035 95.766061452514C268.1250000000001 118.933659217877 279.7087988826817 118.933659217877 279.7087988826817 327.8414804469274V536.5495810055866C279.7087988826817 594.56843575419 326.1438547486035 571.4008379888269 395.7465083798884 652.5872905027933S511.7842178770951 757.0412011173185 534.9518156424582 907.8303072625698S906.2325418994413 1058.6194134078212 709.0083798882682 664.1710893854749z M29.9581005586592 601.558659217877H209.7067039106146A29.95810055865922 29.95810055865922 0 0 0 239.6648044692738 571.6005586592178V102.2569832402234A29.95810055865922 29.95810055865922 0 0 0 209.7067039106146 72.2988826815641H29.9581005586592A29.95810055865922 29.95810055865922 0 0 0 0 102.2569832402234V571.6005586592178A29.95810055865922 29.95810055865922 0 0 0 29.9581005586592 601.558659217877z" />
    <glyph glyph-name="thumbs-up"
      unicode="&#xE02D;"
      horiz-adv-x="987.6484892477997" d=" M689.1922693040559 -2e-13C593.0977225297161 -2e-13 468.4836221758462 29.8819526358768 316.2582342800109 89.7366845113871C243.1428182560566 118.9828509209689 243.5969512748389 149.6822429906539 244.6868705199165 263.6696307050176C244.6868705199165 285.5588422103256 245.2318301424553 311.7169040921875 245.2318301424553 343.0520823881679V532.9705108429362C245.2318301424553 588.0114327193539 278.0202340985391 606.5400598856727 301.9984574902459 619.9823972416295A194.27810543507852 194.27810543507852 0 0 1 361.6715361582434 668.0296706287995C373.3881680428274 681.7444877960257 384.5598403048726 693.8244260956357 394.4599401143273 704.3603121313855C438.4200163324562 751.9534524997732 462.6707195354324 778.2023409853915 477.9295889665185 877.3849922874513C487.012249342165 933.5158334089466 528.8833136738954 978.4750022683968 588.2839125306234 994.732964340804S708.3566826966701 993.6430450957264 744.9598040105254 949.3196624625716C778.7473006079304 908.1752109608929 803.9062698484711 831.2450775791671 750.9543598584521 694.5510389256874H860.4912439887488C910.0825696397786 694.5510389256874 952.3169403865348 664.1241266672716 973.3887124580345 612.8070955448688C992.9164322656746 565.5772615915071 994.2788313220216 499.4554940568006 964.3060520823882 450.681607839579A178.8375827964795 178.8375827964795 0 0 0 952.0444605752654 326.8849469195173A155.85845204609384 155.85845204609384 0 0 0 917.7120043553218 187.738589964613A177.38435713637605 177.38435713637605 0 0 0 854.1333817257962 48.2289265946829C814.8054622992468 16.0763088648943 759.6737138190726 -2e-13 689.1922693040559 -2e-13zM337.0575265402415 179.4733690227745C340.872243898013 177.6568369476452 346.7759731421832 175.2953452499771 349.7732510661466 174.114599401143C650.8634425188277 56.0400145177385 758.4929679702387 88.1926322475271 796.1860085291717 118.0745848834041S826.522094183831 196.5487705289899 826.2496143725616 198.6377824153885L821.7991107884948 224.4325378822247L841.96261682243 240.7813265583883A65.48598130841123 65.48598130841123 0 0 1 860.9453770075312 314.6233554123943L851.2269304055895 337.239179747754L864.8509209690593 357.6751655929586A87.46601941747575 87.46601941747575 0 0 1 872.2987024770894 439.4191089737771L857.6756192722985 468.6652753833587L881.1088830414665 491.2810997187185C897.820978132656 507.9931948099081 901.726522094184 548.6835132928044 889.4649305870612 578.3838127211684C882.4712820978135 595.1867344161144 872.7528354958716 603.724435169222 860.4912439887489 603.724435169222H607.6299791307505L640.5092096905909 669.4828962889027C716.6219036385085 821.708284184738 685.9225115688233 878.384084928772 674.8416659105346 891.7355956809724C658.5837038381273 911.4449686961254 631.9715089374831 912.8073677524721 612.3529625260868 907.4485981308408S571.4809908356775 888.0117049269573 567.7571000816625 863.8518283277376C548.320206877779 737.2395426912256 509.9005534887944 695.6409581707646 461.3083204790856 643.0523545957715C451.4990472733874 632.425641956265 441.4172942564199 621.5264495054893 430.7905816169134 609.0832047908535A283.46983032392706 283.46983032392706 0 0 0 346.6851465384269 541.0540785772613C343.1429089919248 539.0558932946191 338.9648852191274 536.6944015969509 336.2400871064334 534.9686961255782C336.2400871064334 534.4237365030393 336.2400871064334 533.8787768805005 336.2400871064334 533.1521640504488V343.2337355956807C336.2400871064334 311.444424280918 336.2400871064334 285.0138825877866 335.6951274838946 262.8521912712092A692.0987206242628 692.0987206242628 0 0 1 337.0575265402415 179.4733690227745z M27.2479811269395 592.1894564921513H190.7358678885764A27.247981126939482 27.247981126939482 0 0 0 217.9838490155159 564.9414753652118V138.0564377098267A27.247981126939482 27.247981126939482 0 0 0 190.7358678885764 110.8084565828872H27.2479811269395A27.247981126939482 27.247981126939482 0 0 0 0 138.0564377098267V564.9414753652119A27.247981126939482 27.247981126939482 0 0 0 27.2479811269395 592.1894564921514z" />
    <glyph glyph-name="user-delete-solid"
      unicode="&#xE02E;"
      horiz-adv-x="941.3084662576687" d=" M473.4791411042944 517.8179141104295C471.1455214723926 517.8179141104295 475.014417177914 517.8179141104295 472.6807975460122 518.1863803680982C550.242944785276 562.0952760736197 596.7311042944785 646.658282208589 596.7311042944785 743.626319018405C596.7311042944785 885.5472392638037 483.9804294478528 1001 345.4371165644172 1001S94.3273619631902 885.4244171779142 94.3273619631902 743.626319018405A258.6019018404907 258.6019018404907 0 0 1 224.518773006135 518.1863803680982C99.9157668711657 513.2120858895705 0 407.6465030674847 0 279.1746012269939V171.9509202453988L21.739509202454 162.1865644171779A783.7277300613497 783.7277300613497 0 0 1 345.6213496932516 92.7920858895706Q372.7036196319018 92.7920858895706 399.4174233128835 94.6344171779141A324.86441717791405 324.86441717791405 0 0 0 406.6639263803682 444.6773619631902A328.3034355828221 328.3034355828221 0 0 0 473.4791411042944 517.8179141104295z M677.240981595092 528.1349693251534A264.06748466257665 264.06748466257665 0 1 1 941.3084662576686 264.0674846625767A261.91809815950916 261.91809815950916 0 0 1 677.240981595092 528.1349693251534zM677.240981595092 54.7786503067487A208.4290797546012 208.4290797546012 0 0 0 530.8370552147239 114.6544171779143A211.31539877300605 211.31539877300605 0 0 0 485.7613496932515 180.1185889570553A209.28883435582816 209.28883435582816 0 1 0 677.486625766871 54.7786503067487z M798.3435582822085 179.1974233128835L714.5174846625766 263.8832515337424L798.3435582822085 348.5690797546013L816.7668711656441 366.9923926380368A17.317914110429445 17.317914110429445 0 0 1 816.7668711656441 391.556809815951L802.4580981595091 405.6813496932515A17.0722699386503 17.0722699386503 0 0 1 790.175889570552 410.7170552147238A17.256503067484662 17.256503067484662 0 0 1 777.8936809815949 405.6199386503067L759.4703680981594 387.1966257668711L688.4177914110429 315.6527607361964L676.1355828220858 303.0020858895706L593.9061963190184 386.0298159509203L574.5003067484662 405.6813496932516A17.010858895705518 17.010858895705518 0 0 1 562.2180981595092 410.7784662576687A15.8440490797546 15.8440490797546 0 0 1 556.0769938650307 409.6116564417179A16.458159509202453 16.458159509202453 0 0 1 549.9358895705521 405.8041717791412L535.5657055214723 391.6182208588957A17.379325153374232 17.379325153374232 0 0 1 535.5657055214723 367.0538036809816L555.2172392638037 347.2180368098159L617.5494478527607 284.2103067484662L637.5694478527607 264.0060736196318L617.6722699386504 243.9246625766871L579.9044785276074 205.7884049079754L555.3400613496933 180.7941104294479L535.688527607362 160.9583435582823A17.317914110429445 17.317914110429445 0 0 1 535.688527607362 136.3939263803682L549.9973006134969 122.2079754601229A17.563558282208586 17.563558282208586 0 0 1 552.6379754601227 120.0585889570554A17.13368098159509 17.13368098159509 0 0 1 562.1566871165644 117.2336809815952A17.5021472392638 17.5021472392638 0 0 1 574.4388957055215 122.3307975460124L580.1501226993865 128.1034355828223L593.8447852760737 141.9209202453989L676.1355828220858 225.1328834355828L691.4269325153373 209.6573006134969L759.3475460122698 141.0611656441719L777.7708588957054 122.6378527607362A17.5021472392638 17.5021472392638 0 0 1 790.0530674846624 117.540736196319A17.256503067484662 17.256503067484662 0 0 1 802.3352760736194 122.5150306748466L816.6440490797545 136.700981595092A17.256503067484662 17.256503067484662 0 0 1 816.6440490797545 161.2653987730062z" />
    <glyph glyph-name="user-delete"
      unicode="&#xE02F;"
      horiz-adv-x="941.3084662576687" d=" M453.8276073619632 502.4651533742331A127.36650306748464 127.36650306748464 0 0 0 482.0766871165644 527.643680981595A258.90895705521467 258.90895705521467 0 0 1 596.9153374233128 743.6263190184048C596.9153374233128 885.5472392638036 484.1646625766871 1000.9999999999998 345.6213496932516 1000.9999999999998S94.3273619631902 885.4244171779142 94.3273619631902 743.626319018405A258.6019018404907 258.6019018404907 0 0 1 224.518773006135 518.1863803680982C99.9157668711657 513.2120858895705 0 407.6465030674847 0 279.1746012269939V171.9509202453988L21.739509202454 162.1865644171779A783.7277300613497 783.7277300613497 0 0 1 345.6213496932516 92.7920858895706Q372.7036196319018 92.7920858895706 399.4174233128835 94.6344171779141A323.57478527607356 323.57478527607356 0 0 0 366.6239263803681 166.9152147239265C359.6230674846625 166.9152147239265 352.622208588957 166.6081595092024 345.6213496932515 166.6081595092024A710.3415337423312 710.3415337423312 0 0 0 73.6932515337423 220.1585889570553V279.2974233128835C73.6932515337423 370.5542331288343 145.4827607361963 445.1072392638037 233.669018404908 445.1072392638037H396.7153374233128A20.94116564417178 20.94116564417178 0 0 1 412.9278527607362 452.7836196319018zM168.0206134969326 743.626319018405C168.0206134969326 844.8931288343558 247.8549693251534 927.3067484662575 345.6213496932516 927.3067484662575S523.2220858895704 844.8931288343558 523.2220858895704 743.626319018405S443.5105521472393 559.9458895705523 345.6213496932516 559.9458895705523S168.0206134969326 642.3595092024541 168.0206134969326 743.626319018405z M677.240981595092 528.1349693251534A264.06748466257665 264.06748466257665 0 1 1 941.3084662576686 264.0674846625767A261.91809815950916 261.91809815950916 0 0 1 677.240981595092 528.1349693251534zM677.240981595092 54.7786503067487A208.4290797546012 208.4290797546012 0 0 0 530.8370552147239 114.6544171779143A211.31539877300605 211.31539877300605 0 0 0 485.7613496932515 180.1185889570553A209.28883435582816 209.28883435582816 0 1 0 677.486625766871 54.7786503067487z M798.3435582822085 179.1974233128835L714.5174846625766 263.8832515337424L798.3435582822085 348.5690797546013L816.7668711656441 366.9923926380368A17.317914110429445 17.317914110429445 0 0 1 816.7668711656441 391.556809815951L802.4580981595091 405.6813496932515A17.0722699386503 17.0722699386503 0 0 1 790.175889570552 410.7170552147238A17.256503067484662 17.256503067484662 0 0 1 777.8936809815949 405.6199386503067L759.4703680981594 387.1966257668711L688.4177914110429 315.6527607361964L676.1355828220858 303.0020858895706L593.9061963190184 386.0298159509203L574.5003067484662 405.6813496932516A17.010858895705518 17.010858895705518 0 0 1 562.2180981595092 410.7784662576687A15.8440490797546 15.8440490797546 0 0 1 556.0769938650307 409.6116564417179A16.458159509202453 16.458159509202453 0 0 1 549.9358895705521 405.8041717791412L535.5657055214723 391.6182208588957A17.379325153374232 17.379325153374232 0 0 1 535.5657055214723 367.0538036809816L555.2172392638037 347.2180368098159L617.5494478527607 284.2103067484662L637.5694478527607 264.0060736196318L617.6722699386504 243.9246625766871L579.9044785276074 205.7884049079754L555.3400613496933 180.7941104294479L535.688527607362 160.9583435582823A17.317914110429445 17.317914110429445 0 0 1 535.688527607362 136.3939263803682L549.9973006134969 122.2079754601229A17.563558282208586 17.563558282208586 0 0 1 552.6379754601227 120.0585889570554A17.13368098159509 17.13368098159509 0 0 1 562.1566871165644 117.2336809815952A17.5021472392638 17.5021472392638 0 0 1 574.4388957055215 122.3307975460124L580.1501226993865 128.1034355828223L593.8447852760737 141.9209202453989L676.1355828220858 225.1328834355828L691.4269325153373 209.6573006134969L759.3475460122698 141.0611656441719L777.7708588957054 122.6378527607362A17.5021472392638 17.5021472392638 0 0 1 790.0530674846624 117.540736196319A17.256503067484662 17.256503067484662 0 0 1 802.3352760736194 122.5150306748466L816.6440490797545 136.700981595092A17.256503067484662 17.256503067484662 0 0 1 816.6440490797545 161.2653987730062z" />
    <glyph glyph-name="user-solid"
      unicode="&#xE030;"
      horiz-adv-x="740.6766502318052" d=" M113.2192950180293 736.4778865258666C113.2192950180293 590.3863572610919 228.3518958186063 471.955773051733 370.375156376481 471.955773051733C512.3984169343557 471.955773051733 627.5310177349327 590.3863572610919 627.5310177349327 736.4778865258666C627.5310177349327 882.5694157906411 512.3984169343557 1001 370.375156376481 1001C228.3518958186063 1001 113.2192950180293 882.5694157906411 113.2192950180293 736.4778865258666z M740.6766502318051 179.3682390168518V79.3345352858929A904.2074471999412 904.2074471999412 0 0 0 -1e-13 79.3345352858929V179.3682390168518C-1e-13 312.9920523953198 106.2950180292883 422.4545588343514 236.0883803076016 422.4545588343514H504.5882699242035C634.2343071602031 422.1599087497239 740.6766502318051 312.9920523953197 740.6766502318051 179.3682390168518z" />
    <glyph glyph-name="user"
      unicode="&#xE031;"
      horiz-adv-x="761.799648387315" d=" M514.4093583068498 468.9247413618228A284.9557103252418 284.9557103252418 0 0 1 657.8348096558253 717.3979985124078C657.8348096558253 873.8190547028196 533.6320238014741 1001.0676854418824 380.8659814727162 1001.0676854418824S103.9648387314896 873.6159983771722 103.9648387314896 717.3303130705253A284.9557103252418 284.9557103252418 0 0 1 247.3902900804652 468.8570559199404C110.0565285009128 463.3745351274595 0 347.023260531476 0 205.3576306714449V87.1788491446343L23.960646426398 76.4168638853199A871.450064236933 871.450064236933 0 0 1 737.9066874027995 76.4168638853199L761.8673338291976 87.1788491446343V205.4253161133274C761.7996483873148 347.3616877408885 651.743119886402 463.4422205693421 514.4093583068498 468.9247413618228zM185.187368990466 717.3303130705253C185.187368990466 828.9436067347352 273.1784434376903 919.7774697410237 380.9336669145988 919.7774697410237S576.6799648387316 828.9436067347352 576.6799648387316 717.3303130705253S488.8242612752722 514.883156400027 380.9336669145988 514.883156400027S185.187368990466 605.7170194063156 185.187368990466 717.3303130705253zM680.5771181283387 140.2442355804989A790.6336466292518 790.6336466292518 0 0 0 81.2225302589764 140.2442355804989V205.4253161133273C81.2225302589764 306.0735681925754 160.3468118195957 388.1760091960239 257.5431063628374 388.1760091960239H504.2565420244777C601.5205220096018 388.1760091960239 680.5771181283387 306.2766245182229 680.5771181283387 205.4253161133273z" />
    <glyph glyph-name="users-solid"
      unicode="&#xE032;"
      horiz-adv-x="1451.5382150296427" d=" M585.0260374939912 493.7635795545585A220.5375741067137 220.5375741067137 0 1 1 509.2413074827751 660.1692036532606A219.4950328473001 219.4950328473001 0 0 1 585.0260374939912 493.7635795545585z M962.3457779202053 784.4721999679539C962.3457779202053 673.7453463826662 1052.1076280682935 583.9834962345778 1162.8344816535812 583.9834962345778C1273.5613352388687 583.9834962345778 1363.3231853869572 673.7453463826662 1363.3231853869572 784.4721999679539C1363.3231853869572 895.1990535532416 1273.5613352388687 984.96090370133 1162.8344816535812 984.96090370133C1052.1076280682935 984.96090370133 962.3457779202053 895.1990535532416 962.3457779202053 784.4721999679539z M1196.917561288255 559.9248517865726H1128.7514020189071A254.21967633392092 254.21967633392092 0 0 1 934.9189232494792 469.8653260695401A376.918763018747 376.918763018747 0 0 0 1140.0589649094695 184.930780323666C1147.5973401698445 184.930780323666 1155.2159109117126 184.449607434706 1162.8344816535812 184.449607434706A597.777119051434 597.777119051434 0 0 1 1451.5382150296427 258.2294504085884V305.3041980451851A255.42260855632117 255.42260855632117 0 0 1 1196.917561288255 559.9248517865726z M88.2150296426855 800.511296266624C88.2150296426855 689.7844426813363 177.9768797907738 600.0225925332479 288.7037333760615 600.0225925332479C399.4305869613492 600.0225925332479 489.1924371094376 689.7844426813363 489.1924371094376 800.511296266624C489.1924371094376 911.2381498519115 399.4305869613492 1001 288.7037333760615 1001C177.9768797907738 1001 88.2150296426855 911.2381498519115 88.2150296426855 800.511296266624z M887.282807242429 385.8204614645089A276.35362922608556 276.35362922608556 0 0 1 766.9895850024034 413.086925172248H692.2473962506008A276.19323826309886 276.19323826309886 0 0 1 569.4681140842813 384.457138279122A282.4484858195802 282.4484858195802 0 0 1 425.1162473962505 216.0466271430861A276.8348021150457 276.8348021150457 0 0 1 412.4453613203012 132.9641083159751V81.1578272712708A662.2542861720879 662.2542861720879 0 0 1 1047.753965710623 81.1578272712708V132.9641083159751A277.63675692997924 277.63675692997924 0 0 1 1040.2957859317414 197.1204935106554A282.1277038936068 282.1277038936068 0 0 1 887.282807242429 385.8204614645089z M527.8466591892325 471.5494311809005A254.70084922288103 254.70084922288103 0 0 1 322.6264220477487 575.803557122256H254.4602627784008A255.42260855632117 255.42260855632117 0 0 1 0 321.3432943438552V274.2685467072585A597.777119051434 597.777119051434 0 0 1 288.7037333760615 200.4887037333761C299.9311007851306 200.4887037333761 311.1584681941996 200.4887037333761 322.225444640282 201.4510495112962A377.39993590770706 377.39993590770706 0 0 0 527.8466591892325 471.5494311809005z" />
    </font>
</defs>
</svg>
