<?xml version="1.0" encoding="utf-8"?>
<!-- Generator: Adobe Illustrator 22.0.1, SVG Export Plug-In . SVG Version: 6.00 Build 0)  -->
<svg version="1.1" id="Layer_1" xmlns="http://www.w3.org/2000/svg" xmlns:xlink="http://www.w3.org/1999/xlink" x="0px" y="0px"
	 viewBox="0 0 336 235.2" style="enable-background:new 0 0 336 235.2;" xml:space="preserve">
<style type="text/css">
	.st0{opacity:0.15;}
	.st1{fill:#FFFFFF;}
	.st2{fill:#E2D9AC;}
	.st3{fill:#1BB2CC;}
	.st4{fill:#449454;}
	.st5{fill:#DEDFE0;}
	.st6{fill:#B7B18B;}
	.st7{opacity:0.5;}
	.st8{fill:#F68256;}
	.st9{fill:#F9FAFB;}
	.st10{fill:#19A5BD;}
	.st11{opacity:0.1;}
	.st12{fill:#F2F7F6;}
	.st13{fill:#F9FFFE;}
	.st14{fill:#D6CF9D;}
	.st15{fill:#3C5B66;}
	.st16{fill:#DFE3E2;}
	.st17{fill:#329A9C;}
	.st18{font-family:'LHFCincinnatiPosterSMOOTH';}
	.st19{font-size:12px;}
</style>
<g class="st0">
	<g>
		<g>
			<path class="st1" d="M157.5,103.1c0,1.5-1.2,2.6-2.6,2.6h-39.9c-1.5,0-2.6-1.2-2.6-2.6V102c0-1.5,1.2-2.6,2.6-2.6h39.9
				c1.5,0,2.6,1.2,2.6,2.6V103.1z"/>
		</g>
		<g>
			<path class="st1" d="M136.6,94.6c0,0.8-0.8,1.5-1.7,1.5h-16.3c-1,0-1.7-0.7-1.7-1.5V94c0-0.8,0.8-1.5,1.7-1.5h16.3
				c1,0,1.7,0.7,1.7,1.5V94.6z"/>
		</g>
		<g>
			<path class="st1" d="M120.1,95.5c0,0,2.2,1.7,0,3.9h9.2v-3.3"/>
		</g>
		<g>
			<path class="st1" d="M134.1,95.5c0,0-2.2,1.7,0,3.9h-11.3l0.3-3.5"/>
		</g>
		<g>
			<path class="st1" d="M132.6,110.5c0-0.8,0.8-1.5,1.7-1.5h16.3c1,0,1.7,0.7,1.7,1.5v0.6c0,0.8-0.8,1.5-1.7,1.5l-16.3,0
				c-1,0-1.7-0.7-1.7-1.5L132.6,110.5z"/>
		</g>
		<g>
			<path class="st1" d="M149.1,109.6c0,0-2.2-1.7,0-3.9h-9.2v3.3"/>
		</g>
		<g>
			<path class="st1" d="M135.9,109.6c0,0,2.2-1.7,0-3.9h11.3l-0.3,3.5"/>
		</g>
	</g>
	<g>
		<path class="st1" d="M321.3,79.1c0,2.1-1.7,3.9-3.9,3.9h-72.3c-2.1,0-3.9-1.7-3.9-3.9v-1.6c0-2.1,1.7-3.9,3.9-3.9h72.3
			c2.1,0,3.9,1.7,3.9,3.9V79.1z"/>
	</g>
	<g>
		<path class="st1" d="M302.1,66.6c0,1.3-1.1,2.3-2.5,2.3h-24.1c-1.4,0-2.5-1-2.5-2.3v-0.9c0-1.3,1.1-2.3,2.5-2.3h24.1
			c1.4,0,2.5,1,2.5,2.3V66.6z"/>
	</g>
	<g>
		<path class="st1" d="M277.8,67.9c0,0,3.3,2.5,0,5.7h13.6v-4.8"/>
	</g>
	<g>
		<path class="st1" d="M298.3,67.9c0,0-3.3,2.5,0,5.7h-16.6l0.4-5.2"/>
	</g>
	<g>
		<path class="st1" d="M256.6,90.1c0-1.3,1.1-2.3,2.5-2.3h24.1c1.4,0,2.5,1,2.5,2.3l0,0.9c0,1.3-1.1,2.3-2.5,2.3l-24.1,0
			c-1.4,0-2.5-1-2.5-2.3L256.6,90.1z"/>
	</g>
	<g>
		<path class="st1" d="M280.9,88.7c0,0-3.3-2.5,0-5.7h-13.6l0,4.8"/>
	</g>
	<g>
		<path class="st1" d="M261.5,88.7c0,0,3.3-2.5,0-5.7h16.6l-0.4,5.2"/>
	</g>
	<g>
		<path class="st1" d="M64.4,155.7c0,1.6-1.3,2.9-2.9,2.9H17.6c-1.6,0-2.9-1.3-2.9-2.9v-1.2c0-1.6,1.3-2.9,2.9-2.9h43.8
			c1.6,0,2.9,1.3,2.9,2.9V155.7z"/>
	</g>
	<g>
		<path class="st1" d="M41.4,146.4c0,0.9-0.8,1.7-1.9,1.7H21.6c-1,0-1.9-0.8-1.9-1.7v-0.7c0-0.9,0.8-1.7,1.9-1.7h17.9
			c1,0,1.9,0.8,1.9,1.7V146.4z"/>
	</g>
	<g>
		<path class="st1" d="M23.4,147.4c0,0,2.4,1.9,0,4.3h10.1v-3.6"/>
	</g>
	<g>
		<path class="st1" d="M38.6,147.4c0,0-2.4,1.9,0,4.3H26.3l0.3-3.9"/>
	</g>
	<g>
		<path class="st1" d="M37,163.8c0-0.9,0.8-1.7,1.9-1.7h17.9c1,0,1.9,0.8,1.9,1.7v0.7c0,0.9-0.8,1.7-1.9,1.7l-17.9,0
			c-1,0-1.9-0.8-1.9-1.7L37,163.8z"/>
	</g>
	<g>
		<path class="st1" d="M40.7,162.8c0,0,2.4-1.9,0-4.3H53l-0.3,3.9"/>
	</g>
	<g>
		<path class="st1" d="M90,40.7c0,1.6-1.3,2.9-2.9,2.9H53.3c-1.6,0-2.9-1.3-2.9-2.9v-1.2c0-1.6,1.3-2.9,2.9-2.9h33.8
			c1.6,0,2.9,1.3,2.9,2.9V40.7z"/>
	</g>
	<g>
		<path class="st1" d="M87.9,31.4c0,0.9-0.8,1.7-1.9,1.7H68.1c-1,0-1.9-0.8-1.9-1.7v-0.7c0-0.9,0.8-1.7,1.9-1.7H86
			c1,0,1.9,0.8,1.9,1.7V31.4z"/>
	</g>
	<g>
		<path class="st1" d="M69.9,32.4c0,0,2.4,1.9,0,4.3H80v-3.6"/>
	</g>
	<g>
		<path class="st1" d="M85.2,32.4c0,0-2.4,1.9,0,4.3H72.8l0.3-3.9"/>
	</g>
	<g>
		<path class="st1" d="M57.5,48.8c0-0.9,0.8-1.7,1.9-1.7h17.9c1,0,1.9,0.8,1.9,1.7v0.7c0,0.9-0.8,1.7-1.9,1.7l-17.9,0
			c-1,0-1.9-0.8-1.9-1.7V48.8z"/>
	</g>
	<g>
		<path class="st1" d="M75.6,47.8c0,0-2.4-1.9,0-4.3H65.4v3.6"/>
	</g>
	<g>
		<path class="st1" d="M61.1,47.8c0,0,2.4-1.9,0-4.3h12.4l-0.3,3.9"/>
	</g>
	<g>
		<path class="st1" d="M257.5,152.4c0,1.6,1.3,2.9,2.9,2.9h33.8c1.6,0,2.9-1.3,2.9-2.9v-1.2c0-1.6-1.3-2.9-2.9-2.9h-33.8
			c-1.6,0-2.9,1.3-2.9,2.9V152.4z"/>
	</g>
	<g>
		<path class="st1" d="M259.6,143c0,0.9,0.8,1.7,1.9,1.7h17.9c1,0,1.9-0.8,1.9-1.7v-0.7c0-0.9-0.8-1.7-1.9-1.7h-17.9
			c-1,0-1.9,0.8-1.9,1.7V143z"/>
	</g>
	<g>
		<path class="st1" d="M277.6,144c0,0-2.4,1.9,0,4.3h-10.1v-3.6"/>
	</g>
	<g>
		<path class="st1" d="M262.3,144c0,0,2.4,1.9,0,4.3h12.4l-0.3-3.9"/>
	</g>
	<g>
		<path class="st1" d="M290,160.5c0-0.9-0.8-1.7-1.9-1.7h-17.9c-1,0-1.9,0.8-1.9,1.7v0.7c0,0.9,0.8,1.7,1.9,1.7l17.9,0
			c1,0,1.9-0.8,1.9-1.7L290,160.5z"/>
	</g>
	<g>
		<path class="st1" d="M271.9,159.5c0,0,2.4-1.9,0-4.3h10.1v3.6"/>
	</g>
	<g>
		<path class="st1" d="M286.4,159.5c0,0-2.4-1.9,0-4.3H274l0.3,3.9"/>
	</g>
</g>
<g>
	<g>
		<path class="st2" d="M291,234.8c-2.4-54-57.8-97.2-125.7-97.2c-67.9,0-123.3,43.2-125.7,97.2H291z"/>
	</g>
</g>
<g>
	<g>
		<path class="st3" d="M97.3,94.5c0,17.7-14.4,32.1-32.1,32.1c-17.7,0-32.1-14.4-32.1-32.1c0-17.7,14.4-32.1,32.1-32.1
			C82.9,62.4,97.3,76.8,97.3,94.5z"/>
	</g>
	<g>
		<path class="st4" d="M37.5,78.3c0,0-1.4,8.5,1.5,8.4c2.9-0.1,5.3,0.1,5.3,0.1v7.8l1.6,9l2.2,5.5l5.2,7.1l3.3-12.6l5.2-4l3.3-7
			l-7.3-5.8h-6.7l-4.4-6.2l2.5-5.3l5.3-2.1l1.9-7.5l1.6-2.8c0,0-9.9,3.8-12.7,6.3C42.6,71.7,38.7,76.1,37.5,78.3z"/>
	</g>
	<g>
		<path class="st4" d="M80.4,66.2l-1.1,2.6l3.4,9.2h6h3.9l-4.2,7.4L81,84.3l-3.8,2.5l-1.4,4.1v4.9l5.5,2.5l7,0.2l-4.1,5.2l-4.8,7.3
			l3,7l4,0.3c0,0,8.5-5.2,10.7-19.7C99.4,84,90.6,71.1,80.4,66.2z"/>
	</g>
	<g class="st0">
		<g>
			<path class="st1" d="M57,125.5c-2.1-4.3-3.4-9.2-3.4-14.3C53.7,93.4,68.1,79,85.9,79c2.9,0,5.6,0.4,8.3,1.1
				C88.9,69.5,78,62.2,65.3,62.2c-17.8,0-32.2,14.4-32.2,32.2C33.1,109.3,43.3,121.8,57,125.5z"/>
		</g>
	</g>
</g>
<g>
	<g>
		<path class="st5" d="M147.3,116.1c-0.8-0.3-7.4-3.3-8.4-8.7c-1-5.6,7.6-10.3,9.3-11.2l1.7,3.3c-3.3,1.7-7.7,5.2-7.4,7.2
			c0.5,2.9,4.7,5.2,6.2,5.9L147.3,116.1z"/>
	</g>
</g>
<g>
	<g>
		<path class="st5" d="M188.5,116.1l-1.5-3.4c1.6-0.7,5.7-3,6.2-5.9c0.4-2-4-5.5-7.4-7.2l1.7-3.3c1.7,0.9,10.3,5.6,9.3,11.2
			C195.9,112.7,189.3,115.7,188.5,116.1z"/>
	</g>
</g>
<g>
	<path class="st6" d="M213.9,178c0,4.5-19.4,8.2-43.4,8.2c-23.9,0-43.4-3.7-43.4-8.2c0-4.5,19.4-8.2,43.4-8.2
		C194.5,169.8,213.9,173.5,213.9,178z"/>
</g>
<g class="st7">
	<path class="st8" d="M186.2,71.4c-7.8-8.7-18.3-8.2-18.3-8.2s-10.5-0.5-18.3,8.2c-4.5,5-7.4,11.8-7.4,18.1c0,6.3,2.8,13.3,6.9,17.4
		h18.8h18.8c4.1-4.1,6.9-11.1,6.9-17.4C193.6,83.2,190.8,76.4,186.2,71.4z"/>
</g>
<g class="st7">
	<path class="st8" d="M184.3,75.1c-7-7.7-16.4-7.3-16.4-7.3s-9.4-0.4-16.4,7.3c-4.1,4.5-6.6,10.6-6.6,16.2c0,5.6,2.5,11.9,6.2,15.6
		h16.8h16.8c3.7-3.7,6.2-10,6.2-15.6C190.9,85.7,188.4,79.6,184.3,75.1z"/>
</g>
<g>
	<g>
		<path class="st5" d="M145.5,176.3c0,1-0.4,1.7-1,1.7c-0.5,0-1-0.8-1-1.7c0-0.9,0.4-1.7,1-1.7C145.1,174.6,145.5,175.4,145.5,176.3
			z"/>
	</g>
	<g>
		<path class="st5" d="M147.5,176.3c0,1-0.4,1.7-1,1.7c-0.5,0-1-0.8-1-1.7c0-0.9,0.4-1.7,1-1.7C147.1,174.6,147.5,175.4,147.5,176.3
			z"/>
	</g>
	<g>
		<path class="st5" d="M149.5,176.3c0,1-0.4,1.7-1,1.7c-0.5,0-1-0.8-1-1.7c0-0.9,0.4-1.7,1-1.7C149.1,174.6,149.5,175.4,149.5,176.3
			z"/>
	</g>
	<g>
		<path class="st5" d="M151.5,176.3c0,1-0.4,1.7-1,1.7c-0.5,0-1-0.8-1-1.7c0-0.9,0.4-1.7,1-1.7C151,174.6,151.5,175.4,151.5,176.3z"
			/>
	</g>
	<g>
		<path class="st5" d="M153.4,176.3c0,1-0.4,1.7-1,1.7c-0.5,0-1-0.8-1-1.7c0-0.9,0.4-1.7,1-1.7C153,174.6,153.4,175.4,153.4,176.3z"
			/>
	</g>
	<g>
		<path class="st5" d="M155.4,176.3c0,1-0.4,1.7-1,1.7c-0.5,0-1-0.8-1-1.7c0-0.9,0.4-1.7,1-1.7C155,174.6,155.4,175.4,155.4,176.3z"
			/>
	</g>
	<g>
		<path class="st5" d="M157.4,176.3c0,1-0.4,1.7-1,1.7c-0.5,0-1-0.8-1-1.7c0-0.9,0.4-1.7,1-1.7C156.9,174.6,157.4,175.4,157.4,176.3
			z"/>
	</g>
	<g>
		<path class="st5" d="M159.4,176.3c0,1-0.4,1.7-1,1.7s-1-0.8-1-1.7c0-0.9,0.4-1.7,1-1.7S159.4,175.4,159.4,176.3z"/>
	</g>
	<g>
		<path class="st5" d="M161.3,176.3c0,1-0.4,1.7-1,1.7c-0.5,0-1-0.8-1-1.7c0-0.9,0.4-1.7,1-1.7C160.9,174.6,161.3,175.4,161.3,176.3
			z"/>
	</g>
	<g>
		<path class="st5" d="M163.3,176.3c0,1-0.4,1.7-1,1.7c-0.5,0-1-0.8-1-1.7c0-0.9,0.4-1.7,1-1.7C162.9,174.6,163.3,175.4,163.3,176.3
			z"/>
	</g>
	<g>
		<path class="st5" d="M165.3,176.3c0,1-0.4,1.7-1,1.7s-1-0.8-1-1.7c0-0.9,0.4-1.7,1-1.7S165.3,175.4,165.3,176.3z"/>
	</g>
</g>
<g>
	<g>
		<path class="st5" d="M172.5,176.3c0,1-0.4,1.7-1,1.7c-0.5,0-1-0.8-1-1.7c0-0.9,0.4-1.7,1-1.7C172.1,174.6,172.5,175.4,172.5,176.3
			z"/>
	</g>
	<g>
		<path class="st5" d="M174.5,176.3c0,1-0.4,1.7-1,1.7c-0.5,0-1-0.8-1-1.7c0-0.9,0.4-1.7,1-1.7C174.1,174.6,174.5,175.4,174.5,176.3
			z"/>
	</g>
	<g>
		<path class="st5" d="M176.5,176.3c0,1-0.4,1.7-1,1.7c-0.5,0-1-0.8-1-1.7c0-0.9,0.4-1.7,1-1.7C176,174.6,176.5,175.4,176.5,176.3z"
			/>
	</g>
	<g>
		<path class="st5" d="M178.5,176.3c0,1-0.4,1.7-1,1.7c-0.5,0-1-0.8-1-1.7c0-0.9,0.4-1.7,1-1.7C178,174.6,178.5,175.4,178.5,176.3z"
			/>
	</g>
	<g>
		<path class="st5" d="M180.4,176.3c0,1-0.4,1.7-1,1.7c-0.5,0-1-0.8-1-1.7c0-0.9,0.4-1.7,1-1.7C180,174.6,180.4,175.4,180.4,176.3z"
			/>
	</g>
	<g>
		<path class="st5" d="M182.4,176.3c0,1-0.4,1.7-1,1.7c-0.5,0-1-0.8-1-1.7c0-0.9,0.4-1.7,1-1.7C182,174.6,182.4,175.4,182.4,176.3z"
			/>
	</g>
	<g>
		<path class="st5" d="M184.4,176.3c0,1-0.4,1.7-1,1.7c-0.5,0-1-0.8-1-1.7c0-0.9,0.4-1.7,1-1.7C183.9,174.6,184.4,175.4,184.4,176.3
			z"/>
	</g>
	<g>
		<path class="st5" d="M186.4,176.3c0,1-0.4,1.7-1,1.7c-0.5,0-1-0.8-1-1.7c0-0.9,0.4-1.7,1-1.7C185.9,174.6,186.4,175.4,186.4,176.3
			z"/>
	</g>
	<g>
		<path class="st5" d="M188.3,176.3c0,1-0.4,1.7-1,1.7c-0.5,0-1-0.8-1-1.7c0-0.9,0.4-1.7,1-1.7C187.9,174.6,188.3,175.4,188.3,176.3
			z"/>
	</g>
	<g>
		<path class="st5" d="M190.3,176.3c0,1-0.4,1.7-1,1.7c-0.5,0-1-0.8-1-1.7c0-0.9,0.4-1.7,1-1.7C189.9,174.6,190.3,175.4,190.3,176.3
			z"/>
	</g>
	<g>
		<path class="st5" d="M192.3,176.3c0,1-0.4,1.7-1,1.7c-0.5,0-1-0.8-1-1.7c0-0.9,0.4-1.7,1-1.7C191.8,174.6,192.3,175.4,192.3,176.3
			z"/>
	</g>
</g>
<g>
	<path class="st9" d="M186.2,71.6c-7.8-8.7-18.3-8.2-18.3-8.2s-10.5-0.5-18.3,8.2c-4.5,5-7.4,11.8-7.4,18.1c0,6.3,2.8,13.3,6.9,17.4
		h18.8h18.8c4.1-4.1,6.9-11.1,6.9-17.4C193.6,83.4,190.8,76.6,186.2,71.6z"/>
</g>
<g>
	<path class="st3" d="M184.1,75.3c-6.9-7.7-16.2-7.3-16.2-7.3s-9.3-0.4-16.2,7.3c-4,4.5-6.6,10.6-6.6,16.2c0,5.6,2.5,11.9,6.1,15.6
		h16.7h16.7c3.6-3.7,6.1-10,6.1-15.6C190.7,85.9,188.2,79.8,184.1,75.3z"/>
</g>
<g>
	<g>
		<path class="st10" d="M145.4,94.3c0.7,4.8,2.9,9.7,5.9,12.7h33.3c2.8-2.8,4.9-7.2,5.7-11.6c-5.4,4.7-13.2,7.6-21.9,7.6
			C159.2,103.1,150.9,99.7,145.4,94.3z"/>
	</g>
</g>
<g class="st11">
	<path class="st1" d="M184.9,76.2c0,0.1-0.1,0.2-0.1,0.3c-0.5,11.8-5.3,22.3-13.3,30.6h13.1c3.6-3.7,6.1-10,6.1-15.6
		C190.7,86.3,188.5,80.6,184.9,76.2z"/>
</g>
<g class="st11">
	<path class="st1" d="M152.8,95c1.7,1,3.5,1.7,5.4,2.3c-1-9,0.9-17.9,5.8-25.7c0-0.1,0.1-0.2,0.1-0.2c-4.6,1.2-8.8,4-11.3,7.6
		c-2.7,3.8-4,9.4-3.3,13.6L152.8,95z"/>
</g>
<g>
	<g>
		<path class="st12" d="M150.6,150.5l14.7-2.1V148h2.6h2.6v0.4l14.7,2.1c0.1-4,0-6.2,0-16.2c0-17.3-1.4-25.3-1.4-25.3h-32.1
			c0,0-1.4,8-1.4,25.3C150.5,144.3,150.5,146.5,150.6,150.5z"/>
	</g>
	<g>
		<path class="st13" d="M151.2,165.8c0,0-7.6,1.3-7.6,5.5c0,4.2,0,5.2,0,5.2h21.7v-21.2h-14.5C150.8,157.7,151,161,151.2,165.8z"/>
	</g>
	<g>
		<path class="st13" d="M150.6,150.5c0,1.3,0.1,2.8,0.2,4.7h14.5v-6.9L150.6,150.5z"/>
	</g>
	<g>
		<path class="st13" d="M141.5,118.4c0,6.3,0,26.1,0,26.1s-0.8,6.2,7.9,6.2l0.8-0.1l0.4-0.1c-0.1-4-0.1-6.2-0.1-16.2
			c0-17.3,1.4-25.3,1.4-25.3S141.5,112.1,141.5,118.4z"/>
	</g>
	<g>
		<polygon class="st13" points="165.3,148.3 167.9,148 165.3,148 		"/>
	</g>
	<g>
		<path class="st13" d="M170.6,155.2v21.2h21.7c0,0,0-1,0-5.2c0-4.2-7.6-5.5-7.6-5.5c0.2-4.8,0.4-8,0.5-10.5H170.6z"/>
	</g>
	<g>
		<path class="st13" d="M185.3,150.5l0.4,0.1l0.8,0.1c8.7,0,7.9-6.2,7.9-6.2s0-19.8,0-26.1c0-6.3-10.4-9.4-10.4-9.4s1.4,8,1.4,25.3
			C185.3,144.3,185.4,146.5,185.3,150.5z"/>
	</g>
	<g>
		<path class="st13" d="M185.3,150.5l-14.7-2.1v6.9h14.5C185.2,153.2,185.2,151.8,185.3,150.5z"/>
	</g>
	<g>
		<polygon class="st13" points="167.9,148 170.6,148.3 170.6,148 		"/>
	</g>
</g>
<g>
	<path class="st5" d="M186.8,109.2c0,0.5-0.8,0.9-1.9,0.9h-34c-1,0-1.9-0.4-1.9-0.9v-2c0-0.5,0.8-0.9,1.9-0.9h34
		c1,0,1.9,0.4,1.9,0.9V109.2z"/>
</g>
<g>
	<rect x="155.3" y="115.8" class="st3" width="25.3" height="26.9"/>
</g>
<g>
	<rect x="154.4" y="155.1" class="st5" width="8" height="7.3"/>
</g>
<g>
	<rect x="173.4" y="155.1" class="st5" width="8" height="7.3"/>
</g>
<g>
	<rect x="185.3" y="129.2" class="st3" width="9.8" height="1.3"/>
</g>
<g>
	<rect x="185.3" y="140.9" class="st3" width="9.8" height="1.3"/>
</g>
<g>
	<rect x="185.3" y="131.7" class="st3" width="9.8" height="1.3"/>
</g>
<g>
	<rect x="140.7" y="131.7" class="st3" width="9.8" height="1.3"/>
</g>
<g>
	<rect x="140.7" y="129.2" class="st3" width="9.8" height="1.3"/>
</g>
<g>
	<rect x="140.7" y="140.9" class="st3" width="9.8" height="1.3"/>
</g>
<g>
	<rect x="158.7" y="119.3" class="st13" width="7.4" height="4.4"/>
</g>
<g>
	<rect x="158.7" y="131.7" class="st13" width="17.9" height="4.4"/>
</g>
<g>
	<rect x="158.7" y="125.4" class="st13" width="2.7" height="4.4"/>
</g>
<g>
	<rect x="163.5" y="125.4" class="st13" width="2.7" height="4.4"/>
</g>
<g>
	<rect x="169.2" y="125.4" class="st13" width="2.7" height="4.4"/>
</g>
<g>
	<rect x="174" y="125.4" class="st13" width="2.7" height="4.4"/>
</g>
<g>
	<rect x="169.2" y="119.3" class="st13" width="7.4" height="4.4"/>
</g>
<g>
	
		<rect x="159.8" y="131.7" transform="matrix(0.1504 -0.9886 0.9886 0.1504 43.5619 316.0452)" class="st1" width="91.8" height="2"/>
</g>
<g>
	<path class="st1" d="M212.1,90.3c0.4,0.2,6.4-1,10.1,1.5c0,0,2.1,1.3,1.4,2.7c0,0-0.9,1,2,2.3c2.9,1.3,6.8,1.8,11.8,1.5
		c5-0.2,7.1,0,9.1,1.1c2,1.1,2.4,1.7,1.9,5c-0.5,3.3-3.6,24.6-3.6,24.6s-0.2,1.8-1.5,0.9c-1.3-0.9-8.5-3.3-12.6-2.6
		c-4.1,0.7-9.1,0.3-11.7-2.2c0,0-0.5-0.5,0.2-2.1c0.5-1.1,0.1-1.9-2.2-2.5c-2.3-0.6-5.4-1.6-9.3-1.4L212.1,90.3z"/>
</g>
<g>
	<path class="st14" d="M263.6,191.4c-6.8-8-20.1,3.3-20.1,3.3s2.3-14.8-8.2-16.1c-10.5-1.3-13.5,5.5-13.8,12
		c-0.3,6.5,10,22.7,8.7,28.6c4.2-4.4,22-5.1,28.3-7.1C267.3,209.3,270.4,199.4,263.6,191.4z"/>
</g>
<g>
	<g>
		<path class="st6" d="M259.9,205.7c-6.3,2-24.1,2.7-28.3,7.1c1.4-5.9-8.9-22.2-8.7-28.6c0,0,0-0.1,0-0.1c-0.9,2-1.4,4.2-1.5,6.4
			c-0.3,6.5,10,22.7,8.7,28.6c4.2-4.4,22-5.1,28.3-7.1c5.9-1.9,9.2-6.7,8.9-12.1C265.8,202.6,263.3,204.7,259.9,205.7z"/>
	</g>
</g>
<g>
	<path class="st14" d="M80.7,189c-8.2,2.3-4.4,15.9-4.4,15.9s-10.1-6.6-14.6,0.6c-4.5,7.2-0.5,11.8,4.1,14.2
		c4.7,2.4,20.1,0.3,24,3.3c-1.8-4.5,3.7-17.9,4.3-23.2C95.1,192.3,88.9,186.7,80.7,189z"/>
</g>
<g>
	<g>
		<path class="st6" d="M89.1,189.6c1.1,1.8,1.5,4.1,1.2,6.6c-0.7,5.3-6.1,18.6-4.3,23.2c-3.9-3-19.3-0.9-24-3.3
			c-0.4-0.2-0.8-0.4-1.2-0.7c1.1,1.9,3,3.3,5,4.3c4.7,2.4,20.1,0.3,24,3.3c-1.8-4.5,3.7-17.9,4.3-23.2
			C94.7,195.3,92.6,191.4,89.1,189.6z"/>
	</g>
</g>
<g>
	<path class="st14" d="M117.1,157.2c-4.1-0.6-5.2,6.2-5.2,6.2s-3.1-5-6.6-2.7c-3.5,2.3-2.6,5.1-1,7.1c1.6,2,8.9,4.2,10,6.3
		c0.1-2.4,5.3-7.2,6.7-9.4C122.8,161.6,121.2,157.8,117.1,157.2z"/>
</g>
<g>
	<g>
		<path class="st6" d="M120.4,158.8c0.3,1.2,0.1,2.5-0.7,3.8c-1.4,2.2-6.5,7-6.7,9.4c-1.1-2.1-8.4-4.3-10-6.3c0,0,0,0,0-0.1
			c0.2,0.8,0.7,1.5,1.2,2.2c1.6,2,8.9,4.2,10,6.3c0.1-2.4,5.3-7.2,6.7-9.4C122.1,162.7,121.8,160.4,120.4,158.8z"/>
	</g>
</g>
<g>
	<path class="st14" d="M210.2,204.4c-3.2-2.7-7.7,2.6-7.7,2.6s-0.1-5.9-4.3-5.7c-4.2,0.2-4.9,3-4.6,5.6c0.3,2.5,5.4,8.2,5.2,10.6
		c1.3-2,8.3-3.4,10.6-4.6C212.8,211.1,213.4,207.1,210.2,204.4z"/>
</g>
<g>
	<g>
		<path class="st6" d="M210,210.1c-2.3,1.2-9.2,2.6-10.6,4.6c0.1-2.4-4.9-8.1-5.2-10.6c0-0.2,0-0.3,0-0.5c-0.5,1-0.6,2.2-0.4,3.3
			c0.3,2.5,5.4,8.2,5.2,10.6c1.3-2,8.3-3.4,10.6-4.6c2.1-1.1,3.1-3,2.7-5C211.8,208.8,211,209.6,210,210.1z"/>
	</g>
</g>
<g>
	<path class="st14" d="M130.3,234.8h27.5c6.5-4.3,13.1-8.4,16.4-11.4c10.1-9.2,8.6-24.6-4.8-31.6c-13.4-7-24.5,16.4-24.5,16.4
		s-5.3-21.7-19.7-17.3c-14.4,4.4-14.5,15.5-11.3,24.6C115.8,220.6,123.5,227.8,130.3,234.8z"/>
</g>
<g>
	<g>
		<path class="st6" d="M157.8,234.8c6.5-4.3,13.1-8.4,16.4-11.4c4.2-3.8,6.4-8.7,6.5-13.6c-1.1,2.2-2.6,4.2-4.6,6
			c-5.2,4.7-18.6,12.1-26.8,19H157.8z"/>
	</g>
	<g>
		<path class="st6" d="M130.3,234.8h8.8c-7-8.9-20.7-20-23.1-26.9c-1.1-3-1.7-6.2-1.7-9.3c-2.9,5.1-2.2,11.3-0.3,16.9
			C115.8,220.6,123.5,227.8,130.3,234.8z"/>
	</g>
</g>
<g>
	<path class="st15" d="M55.1,162.8c0,0-2.4-1.9,0-4.3H45v3.6"/>
</g>
<g>
	<polygon class="st3" points="221.9,66.1 223.5,66.2 225,65.6 225.3,67.1 226.3,68.3 225,69.1 224.2,70.5 223,69.4 221.5,69.1 
		222.1,67.6 	"/>
</g>
<g>
	<polygon class="st3" points="294.8,186.3 296,185.3 296.6,183.8 297.9,184.6 299.5,184.7 299.1,186.3 299.5,187.8 297.9,187.9 
		296.6,188.7 296,187.3 	"/>
</g>
<g>
	<polygon class="st3" points="288.6,27.8 289.8,26.8 290.4,25.3 291.7,26.2 293.3,26.3 292.9,27.8 293.3,29.3 291.7,29.4 
		290.4,30.3 289.8,28.8 	"/>
</g>
<g>
	<polygon class="st3" points="110,63.2 111.2,62.2 111.7,60.7 113.1,61.6 114.6,61.7 114.3,63.2 114.6,64.7 113.1,64.8 111.7,65.7 
		111.2,64.2 	"/>
</g>
<g>
	<polygon class="st3" points="17.4,120.4 18.6,119.4 19.2,118 20.5,118.8 22.1,118.9 21.7,120.4 22.1,122 20.5,122.1 19.2,122.9 
		18.6,121.4 	"/>
</g>
<g>
	<polygon class="st3" points="28.2,197 29.4,196 30,194.6 31.3,195.4 32.9,195.5 32.5,197 32.9,198.6 31.3,198.6 30,199.5 29.4,198 
			"/>
</g>
<g>
	<polygon class="st3" points="275.1,113.8 276.6,113.9 278.1,113.3 278.4,114.9 279.5,116 278.1,116.8 277.3,118.2 276.1,117.1 
		274.6,116.8 275.2,115.4 	"/>
</g>
<g>
	<polygon class="st3" points="83.2,144.1 84.8,144.2 86.2,143.6 86.6,145.1 87.6,146.3 86.2,147.1 85.4,148.5 84.3,147.4 
		82.7,147.1 83.3,145.6 	"/>
</g>
<g>
	<polygon class="st3" points="31.5,24.6 33.1,24.8 34.6,24.1 34.9,25.7 35.9,26.8 34.6,27.6 33.8,29 32.6,28 31.1,27.6 31.7,26.2 	
		"/>
</g>
<g>
	<path class="st3" d="M310,130.4c-3.4,3.4-9,3.4-12.5,0c-3.4-3.4-3.4-9,0-12.5c3.4-3.4,9-3.4,12.5,0
		C313.4,121.4,313.4,127,310,130.4z"/>
</g>
<g>
	<path class="st10" d="M308.9,119.1c2.8,2.8,2.8,7.4,0,10.3c-2.8,2.8-7.4,2.8-10.3,0"/>
</g>
<g>
	<path class="st12" d="M41.4,60c-3,3-7.9,3-10.9,0c-3-3-3-7.9,0-10.9c3-3,7.9-3,10.9,0C44.4,52.1,44.4,57,41.4,60z"/>
</g>
<g>
	<path class="st16" d="M40.4,50c2.5,2.5,2.5,6.5,0,9c-2.5,2.5-6.5,2.5-9,0"/>
</g>
<g>
	<path class="st12" d="M265,55.7c-4.3,4.3-11.4,4.3-15.7,0c-4.3-4.3-4.3-11.4,0-15.7c4.3-4.3,11.4-4.3,15.7,0
		C269.3,44.3,269.3,51.4,265,55.7z"/>
</g>
<g>
	<path class="st16" d="M263.6,41.4c3.6,3.6,3.6,9.4,0,12.9c-3.6,3.6-9.4,3.6-12.9,0"/>
</g>
<g>
	<polygon class="st12" points="131.2,74.9 132.2,77.1 134.1,78.3 132.2,79.5 131.2,81.7 130.1,79.5 128.2,78.3 130.1,77.1 	"/>
</g>
<g>
	<polygon class="st12" points="79.2,13.7 80.3,15.9 82.2,17.1 80.3,18.3 79.2,20.4 78.2,18.3 76.3,17.1 78.2,15.9 	"/>
</g>
<g>
	<polygon class="st12" points="14.7,86.8 15.8,88.9 17.7,90.1 15.8,91.3 14.7,93.5 13.7,91.3 11.8,90.1 13.7,88.9 	"/>
</g>
<g>
	<polygon class="st12" points="17.7,182.9 18.7,185.1 20.6,186.3 18.7,187.5 17.7,189.7 16.6,187.5 14.7,186.3 16.6,185.1 	"/>
</g>
<g>
	<polygon class="st12" points="58.8,134.9 59.8,137.1 61.7,138.3 59.8,139.5 58.8,141.7 57.7,139.5 55.8,138.3 57.7,137.1 	"/>
</g>
<g>
	<polygon class="st12" points="114.6,124.2 115.7,126.4 117.6,127.6 115.7,128.8 114.6,131 113.6,128.8 111.7,127.6 113.6,126.4 	
		"/>
</g>
<g>
	<polygon class="st12" points="226.3,137.3 227.4,139.5 229.3,140.7 227.4,141.9 226.3,144.1 225.3,141.9 223.4,140.7 225.3,139.5 	
		"/>
</g>
<g>
	<polygon class="st12" points="199.9,59.5 201,61.7 202.9,62.9 201,64.1 199.9,66.3 198.9,64.1 197,62.9 198.9,61.7 	"/>
</g>
<g>
	<polygon class="st12" points="267.5,15.6 268.5,17.8 270.4,19 268.5,20.2 267.5,22.3 266.4,20.2 264.5,19 266.4,17.8 	"/>
</g>
<g>
	<polygon class="st12" points="318.2,53.6 319.3,55.8 321.2,57 319.3,58.2 318.2,60.4 317.2,58.2 315.3,57 317.2,55.8 	"/>
</g>
<g>
	<polygon class="st12" points="298.6,96 299.6,98.2 301.5,99.4 299.6,100.6 298.6,102.8 297.6,100.6 295.6,99.4 297.6,98.2 	"/>
</g>
<g>
	<polygon class="st12" points="312.9,149.9 314,152.1 315.9,153.3 314,154.5 312.9,156.7 311.9,154.5 310,153.3 311.9,152.1 	"/>
</g>
<g>
	<polygon class="st12" points="315.3,210.5 316.3,212.7 318.2,213.9 316.3,215.1 315.3,217.3 314.2,215.1 312.3,213.9 314.2,212.7 	
		"/>
</g>
<text transform="matrix(1 0 0 1 215.75 113.3125)" class="st17 st18 st19">Luna</text>
</svg>
